<?xml version="1.0" encoding="utf-8"?>
<!-- Generator: Adobe Illustrator 16.0.0, SVG Export Plug-In . SVG Version: 6.00 Build 0)  -->
<!DOCTYPE svg PUBLIC "-//W3C//DTD SVG 1.1//EN" "http://www.w3.org/Graphics/SVG/1.1/DTD/svg11.dtd">
<svg version="1.1" id="Layer_1" xmlns="http://www.w3.org/2000/svg" xmlns:xlink="http://www.w3.org/1999/xlink" x="0px" y="0px"
	 width="348.182px" height="107.994px" viewBox="0 0 348.182 107.994" enable-background="new 0 0 348.182 107.994"
	 xml:space="preserve">
<g id="vH8Xxq_1_">
	<g>
		<g>
			<path fill="#FFFFFF" d="M0,72.744c0-1.25,0-2.5,0-3.75c3.719-2.149,7.158-4.317,6.261-9.657c-0.349-2.08,0.418-4.347,0.714-6.845
				c6.501,0,12.793,0,19.857,0c-4.379-6.125-5.559-14.716-15.557-13.008c1.451-4.073,1.452-4.198,5.622-4.17
				c2.626,0.017,4.194-0.894,5.744-3.157c3.802-5.55,8.039-10.805,12.179-16.117c1.335-1.712,2.916-3.233,4.367-4.823
				c-2.388-1.221-4.411-2.255-6.433-3.29c0.125-0.466,0.249-0.932,0.374-1.398c4.284-0.511,8.561-1.089,12.853-1.522
				c13.748-1.386,27.475-3.235,41.259-3.939c16.906-0.864,33.881-1.377,50.791-0.862c13.296,0.405,26.791,1.437,39.748,4.253
				c24.28,5.278,45.046,18.656,65.938,31.462c1.574,0.964,3.614,1.548,5.462,1.615c6.345,0.231,12.812-0.591,19.029,0.344
				c14.806,2.225,29.542,5.001,44.215,7.999c8.454,1.727,16.659,4.511,23.602,9.992c1.568,1.238,2.945,2.717,4.411,4.086
				c-0.203,0.348-0.405,0.696-0.607,1.043c-1.654-0.31-3.346-0.492-4.957-0.954c-5.517-1.582-10.975-3.377-16.515-4.867
				c-4.041-1.087-7.87-0.676-10.854,2.753c7.212,9.472,9.403,11.066,17.964,11.702c5.772,0.429,11.621,2.303,17.377-0.332
				c0.573-0.262,1.662-0.188,2.111,0.197c3.706,3.177,3.443,7.586,2.945,11.742c-0.162,1.35-2.303,2.462-4.312,4.446
				c0.423,2.977,1.009,7.094,1.591,11.209c-7.971-1.069-7.971-1.069-8.324-6.767c-4.909,0-9.808,0-14.707,0
				c-0.203,0.302-0.407,0.604-0.61,0.906c1.071,1.087,1.97,2.805,3.242,3.151c5.509,1.497,11.108,2.694,16.723,3.747
				c1.083,0.203,2.38-0.73,3.579-1.14c0.86,0.886,2.261,1.692,2.405,2.682c0.112,0.768-1.185,2.255-2.138,2.569
				c-3.535,1.166-7.144,2.223-10.804,2.872c-6.734,1.194-13.526,2.071-20.293,3.079c-1.75,0-3.5,0-5.25,0
				c-0.501-6.583-0.45-13.266-1.614-19.729c-2.898-16.089-15.314-26.033-31.794-26.143c-15.188-0.101-26.618,9.641-29.751,25.728
				c-0.992,5.092-1.226,10.332-1.838,15.791c-1.113,0-2.215,0.013-3.317-0.001c-49.855-0.649-99.711-1.297-149.567-1.955
				c-6.697-0.089-6.89-0.106-7.182-6.798c-0.642-14.703-7.424-25.572-21.048-30.867c-21.421-8.324-41.199,7.211-40.593,28.083
				c0.056,1.937,0.007,3.877,0.007,5.645c-3.399,0-6.398,0.182-9.367-0.043C8.639,97.38,1.217,88.635,1.085,84.42
				C0.964,80.521,0.38,76.635,0,72.744z M241.511,42.375c-1.923-2.019-3.175-3.875-4.895-5.038
				c-5.269-3.562-10.578-7.105-16.122-10.209c-17.586-9.848-35.562-18.889-55.978-21.144C133.3,2.535,102.184,4.872,71.123,8.305
				c-1.828,0.202-4.3,1.213-5.132,2.633c-3.693,6.3-7.358,12.7-10.099,19.443c-1.567,3.855,0.423,5.51,4.718,5.557
				c13.238,0.146,26.483,0.092,39.711,0.528c28.81,0.95,57.617,2.03,86.413,3.325c10.325,0.464,20.604,1.943,30.929,2.503
				C225.247,42.706,232.871,42.375,241.511,42.375z M336.465,84.015c-0.71-0.101-1.193-0.229-1.675-0.229
				c-3.365-0.002-6.729-0.022-10.093,0.05c-3.886,0.084-4.147,0.54-2.836,4.369c4.845,0,9.658,0,14.604,0
				C336.465,86.738,336.465,85.534,336.465,84.015z M12.915,88.052c-3.504-0.342-6.493-0.633-9.613-0.938
				C6.058,91.818,9.352,92.261,12.915,88.052z"/>
			<path fill-rule="evenodd" clip-rule="evenodd" fill="#FFFFFF" d="M345.08,96.792c-1.199,0.41-2.495,1.343-3.579,1.14
				c-5.615-1.053-11.214-2.25-16.723-3.747c-1.272-0.346-2.171-2.064-3.242-3.151c0.203-0.302,0.407-0.604,0.61-0.906
				c4.899,0,9.798,0,14.707,0c0.353,5.698,0.353,5.698,8.324,6.767C345.181,96.899,345.08,96.792,345.08,96.792z"/>
			<path fill-rule="evenodd" clip-rule="evenodd" fill="#FFFFFF" d="M336.465,84.015c0,1.52,0,2.724,0,4.191
				c-4.947,0-9.76,0-14.604,0c-1.311-3.83-1.049-4.285,2.836-4.369c3.363-0.072,6.728-0.052,10.093-0.05
				C335.272,83.786,335.754,83.914,336.465,84.015z"/>
			<path fill-rule="evenodd" clip-rule="evenodd" fill="#FFFFFF" d="M12.915,88.052c-3.563,4.208-6.857,3.766-9.613-0.938
				C6.422,87.419,9.411,87.71,12.915,88.052z"/>
			<path fill-rule="evenodd" clip-rule="evenodd" fill="#FFFFFF" d="M207.146,35.736c0.503-3.657,3.238-4.787,5.537-5.036
				c4.968-0.54,10.008,0.049,14.238,3.086c0.891,0.64,0.896,2.512,1.31,3.816c-1.101,0.018-2.218,0.164-3.301,0.031
				c-4.049-0.496-8.082-1.128-12.132-1.615C211.083,35.811,209.34,35.837,207.146,35.736z"/>
		</g>
	</g>
</g>
</svg>
