<?xml version="1.0" encoding="utf-8"?>
<!-- Generator: Adobe Illustrator 16.0.0, SVG Export Plug-In . SVG Version: 6.00 Build 0)  -->
<!DOCTYPE svg PUBLIC "-//W3C//DTD SVG 1.1//EN" "http://www.w3.org/Graphics/SVG/1.1/DTD/svg11.dtd">
<svg version="1.1" id="Layer_1" xmlns="http://www.w3.org/2000/svg" xmlns:xlink="http://www.w3.org/1999/xlink" x="0px" y="0px"
	 width="350.25px" height="106.498px" viewBox="0 0 350.25 106.498" enable-background="new 0 0 350.25 106.498"
	 xml:space="preserve">
<g id="Vy9Rao_1_">
	<g>
		<g>
			<path fill="#FFFFFF" d="M0,75.75c0-1.75,0-3.5,0-5.25c6.295-4.064,7.306-10.372,6.683-17.485c7.107,0,13.633,0,20.816,0
				c-4.608-6.296-5.796-15.735-16.875-12.829c1.148-2.843,2.467-4.888,5.982-4.423c3.077,0.407,5.274-0.738,6.903-3.755
				c1.88-3.482,4.398-6.655,6.892-9.76c2.931-3.649,6.133-7.082,9.054-10.421c-2.298-1.394-4.442-2.695-6.586-3.996
				c1.417-1.219,2.362-1.571,3.334-1.669c15.61-1.581,31.22-3.159,46.836-4.668C89.1,0.908,95.179,0.493,101.25,0c1.5,0,3,0,4.5,0
				c1.068,0.468,2.143,1.355,3.204,1.339c9.871-0.151,19.738-0.596,29.608-0.69c21.457-0.205,42.568,2.276,62.008,11.877
				c14.972,7.395,29.296,16.099,43.962,24.122c1.529,0.837,3.421,1.394,5.151,1.41c5.051,0.045,10.207-0.975,15.137-0.276
				c15.076,2.137,30.165,4.417,45.047,7.584c7.713,1.642,15.127,4.986,22.424,8.145c3.242,1.404,5.857,4.253,8.758,6.447
				c-0.229,0.505-0.458,1.01-0.687,1.515c-1.689-0.29-3.406-0.467-5.061-0.89c-6.637-1.697-13.229-3.575-19.89-5.167
				c-2.892-0.691-5.335,0.477-7.354,3.228c4.521,3.957,7.049,10.197,14.055,10.943c4.967,0.529,10.046,1.972,14.868,1.364
				c4.99-0.629,9.415-1.424,13.27,2.55c0,2.75,0,5.5,0,8.25c-1.544,0.342-3.088,0.685-4.954,1.099c0,2.448-0.217,4.942,0.062,7.378
				c0.271,2.359,1.054,4.659,1.598,6.971c-5.475-0.584-10.937-1.155-16.399-1.726c0.017-0.28,0.034-0.559,0.051-0.837
				c3.483-0.266,6.966-0.532,10.45-0.798c-0.031-0.313-0.061-0.626-0.092-0.939c-3.306,0-6.616,0.082-9.917-0.053
				c-0.921-0.037-1.816-0.711-2.724-1.093c0.924-0.535,1.792-1.344,2.784-1.541c1.448-0.289,2.987-0.097,4.482-0.187
				c1.848-0.112,3.691-0.303,5.536-0.459c-0.022-0.403-0.045-0.806-0.068-1.209c-4.405,0-8.81,0-13.214,0
				c-0.041-0.5-0.081-1.001-0.122-1.501c4.483-0.327,8.968-0.653,13.451-0.98c-0.032-0.322-0.064-0.645-0.096-0.967
				c-3.541,0-7.082,0.032-10.621-0.021c-0.95-0.014-2.594-0.05-2.734-0.47c-1.198-3.592-3.701-1.649-6.264-1.894
				c0.558,4.078,1.035,7.762,1.574,11.437c0.479,3.275,2.521,4.704,5.728,4.679c4.997-0.038,9.996,0.008,14.988-0.167
				c1.07-0.038,2.113-0.865,3.169-1.329c2.472,1.088,3.057,3.164,0.857,4.452c-2.725,1.596-5.976,2.768-9.109,3.103
				c-8.357,0.893-16.773,1.239-25.166,1.803c-1.5,0-3,0-4.5,0c-0.249-5.114-0.171-10.269-0.814-15.333
				c-1.46-11.517-6.847-20.971-17.718-25.571c-20.48-8.667-41.588,1.582-44.481,24.395c-0.64,5.04-0.884,10.129-1.335,15.491
				c-52.974-0.482-105.901-0.964-158.903-1.447c-0.278-0.807-0.616-1.486-0.736-2.202c-0.207-1.228-0.347-2.475-0.396-3.719
				C84.18,86.993,81.504,76.95,72.187,69.608c-10.486-8.262-21.81-9.575-33.718-4.115c-10.49,4.81-16.507,16.631-15.663,29.202
				c0.106,1.583,0.163,3.169,0.254,4.983c-1.981,0-3.702,0.059-5.416-0.01c-6.011-0.242-13.188-5.407-14.888-11.156
				C1.526,84.351,0.897,80.011,0,75.75z M242.264,42.925c-1.569-1.775-2.364-3.064-3.494-3.895
				C220.715,25.768,201.042,15.5,179.62,9.049c-13.205-3.976-27.058-4.815-40.827-4.436c-18.099,0.498-36.19,1.423-54.271,2.413
				c-5.201,0.284-10.486,0.947-15.495,2.311c-4.803,1.308-13.615,19.305-12.65,24.32c0.375,1.948,1.241,2.593,3.265,2.602
				c9.742,0.042,19.488,0.101,29.223,0.445c35.318,1.248,70.635,2.529,105.944,3.996c8.072,0.335,16.097,1.732,24.169,2.145
				C226.341,43.222,233.739,42.925,242.264,42.925z M3.703,87.527c3.284,4.939,6.738,5.213,9.316,1.036
				C10.027,88.23,7.123,87.907,3.703,87.527z M249.035,57.644c0.009-0.315,0.018-0.631,0.026-0.946
				c-3.308-0.146-6.617-0.292-9.926-0.438c-0.017,0.461-0.034,0.923-0.052,1.384C242.401,57.644,245.718,57.644,249.035,57.644z"/>
			<path fill-rule="evenodd" clip-rule="evenodd" fill="#FFFFFF" d="M346.969,97.212c-0.557-2.326-1.339-4.626-1.611-6.985
				c-0.279-2.437-0.062-4.93-0.062-7.378c1.866-0.414,3.41-0.757,4.954-1.099c0,8.25,0,16.5,0,24.75c-12.25,0-24.5,0-36.75,0
				c8.393-0.563,16.808-0.91,25.166-1.803c3.133-0.335,6.384-1.506,9.109-3.103c2.2-1.288,1.615-3.363-0.857-4.452L346.969,97.212z"
				/>
			<path fill-rule="evenodd" clip-rule="evenodd" fill="#FFFFFF" d="M249.035,57.644c-3.317,0-6.634,0-9.952,0
				c0.018-0.461,0.035-0.923,0.052-1.384c3.309,0.146,6.618,0.292,9.926,0.438C249.053,57.013,249.044,57.328,249.035,57.644z"/>
			<path fill-rule="evenodd" clip-rule="evenodd" fill="#FFFFFF" d="M229.641,38.161c-8.173,0-15.208,0.147-22.23-0.084
				c-2.312-0.076-2.521-2.41-1.082-3.45c2.512-1.816,5.509-4.062,8.325-4.093c3.894-0.043,7.926,1.501,11.654,2.983
				C227.704,34.072,228.413,36.36,229.641,38.161z"/>
		</g>
	</g>
</g>
</svg>
