<?xml version="1.0" standalone="no"?>
<!DOCTYPE svg PUBLIC "-//W3C//DTD SVG 1.1//EN" "http://www.w3.org/Graphics/SVG/1.1/DTD/svg11.dtd" >
<svg xmlns="http://www.w3.org/2000/svg">
<metadata></metadata>
<defs>
<font id="vwutopia-booktabregular" horiz-adv-x="1085" >
<font-face units-per-em="2048" ascent="1638" descent="-410" />
<missing-glyph horiz-adv-x="460" />
<glyph horiz-adv-x="2048" />
<glyph horiz-adv-x="2048" />
<glyph unicode="&#xd;" horiz-adv-x="2048" />
<glyph unicode=" "  horiz-adv-x="460" />
<glyph unicode="&#x09;" horiz-adv-x="460" />
<glyph unicode="&#xa0;" horiz-adv-x="460" />
<glyph unicode="!" horiz-adv-x="495" d="M119 104q0 -55 35.5 -92t93.5 -37q59 0 94 36t35 93q0 59 -36 96.5t-93 37.5t-93 -38t-36 -96zM133 1333q2 -14 2 -22l82 -883h59l86 883q0 8 3 22v19q0 51 -25 73.5t-92 22.5q-66 0 -90.5 -22.5t-24.5 -73.5v-19z" />
<glyph unicode="&#x22;" horiz-adv-x="937" d="M207 1442l2 -15v-16l72 -461h41l71 461q0 8 2 16v15q0 78 -94 78t-94 -78zM545 1442l2 -15v-16l71 -461h41l72 461q0 8 2 16v15q0 78 -94 78t-94 -78z" />
<glyph unicode="#" d="M23 475h219l-119 -475h113l116 475h277l-119 -475h111l116 475h215l21 94h-213l67 273h215l21 94h-213l106 432h-108l-107 -432h-276l106 432h-110l-107 -432h-217l-24 -94h219l-68 -273h-217zM375 569l67 273h277l-68 -273h-276z" />
<glyph unicode="$" horiz-adv-x="1105" d="M100 225q0 -29 21.5 -65.5t70 -72.5t127 -60.5t189.5 -26.5v-209h82v209q43 0 109.5 14.5t138 53t121 114.5t49.5 193q0 162 -103.5 263t-314.5 161v497q66 -4 120 -49t89 -133q16 -41 55 -41q31 0 62.5 21.5t31.5 62.5q0 74 -95 140.5t-263 70.5v154h-82v-156 q-74 -2 -142.5 -23.5t-123 -65.5t-86 -110.5t-31.5 -152.5q0 -129 89 -222.5t294 -154.5v-565q-63 2 -130 49t-124 164q-23 45 -59 45q-33 0 -64 -31t-31 -74zM287 1069q0 59 20.5 103.5t54 71t71.5 38.5t75 12v-465q-47 16 -84 34t-68.5 45.5t-50 67.5t-18.5 93zM590 72 v538q115 -37 177 -104.5t62 -194.5q0 -66 -21.5 -112.5t-56 -74.5t-76.5 -40t-85 -12z" />
<glyph unicode="%" horiz-adv-x="1716" d="M102 1018q0 -180 81 -277.5t241 -97.5q162 0 243 97.5t81 277.5q0 141 -27 213h420l-766 -1227l74 -55l901 1442l-70 43l-49 -70q-27 -39 -59.5 -53.5t-86.5 -14.5h-346q-33 0 -48 5.5t-40 21.5q-45 33 -99 51.5t-128 18.5q-160 0 -241 -97.5t-81 -277.5zM254 1018 q0 156 45 232.5t125 76.5q82 0 127 -76.5t45 -232.5q0 -147 -45 -228t-127 -81q-80 0 -125 80.5t-45 228.5zM969 350q0 -180 80.5 -277.5t240.5 -97.5q162 0 243 97.5t81 277.5t-81 277.5t-243 97.5q-160 0 -240.5 -97.5t-80.5 -277.5zM1120 350q0 156 45 232.5t125 76.5 q82 0 127 -76.5t45 -232.5q0 -147 -45 -228t-127 -81q-80 0 -125 81t-45 228z" />
<glyph unicode="&#x26;" horiz-adv-x="1445" d="M94 360q0 -180 126 -282.5t321 -102.5q227 0 426 175l57 -46q70 -53 151.5 -78.5t188.5 -35.5l43 -4l10 51q-35 10 -80 36.5t-91 61.5t-88 72t-79 72q98 115 158.5 209t93.5 188q14 47 15 78q0 61 -39 133q-2 0 -13 2h-12q-66 0 -131 -37q6 -51 6 -111q0 -117 -29.5 -223 t-101.5 -188q-131 119 -233.5 227.5t-196.5 224.5q74 39 123 70t89 67.5t63.5 84t23.5 106.5q0 131 -87 207t-216 76q-72 0 -133.5 -26t-106.5 -71q-94 -94 -94 -229q0 -94 36 -166t99 -151q-68 -41 -115 -76t-90 -80t-68.5 -103.5t-25.5 -130.5zM293 401q0 106 42 174 t99 117q209 -249 477 -491q-74 -63 -144.5 -94t-164.5 -31q-133 0 -221 91t-88 234zM416 1118q0 90 50 146.5t118 56.5q74 0 113.5 -55.5t39.5 -143.5q0 -84 -49 -156.5t-139 -134.5q-66 74 -99.5 143.5t-33.5 143.5z" />
<glyph unicode="'" horiz-adv-x="569" d="M190 1442l3 -15v-16l71 -461h41l72 461q0 8 2 16v15q0 78 -94 78t-95 -78z" />
<glyph unicode="(" horiz-adv-x="716" d="M215 578q0 -156 21.5 -300.5t72.5 -265.5t139.5 -194.5t217.5 -79.5v51q-51 10 -103.5 54t-98.5 135.5t-76 241t-30 358.5t29 357t74 239.5t97 136.5t108 55v51q-127 -4 -216.5 -78.5t-140.5 -195.5t-72.5 -265.5t-21.5 -299.5z" />
<glyph unicode=")" horiz-adv-x="716" d="M51 -211v-51q127 4 216 78.5t140.5 195.5t73 265.5t21.5 300.5t-21.5 300t-73 265t-139.5 194.5t-217 79.5v-51q53 -10 106.5 -55t98.5 -135.5t73.5 -240t28.5 -357.5q0 -209 -29.5 -358.5t-75.5 -241t-98.5 -135.5t-103.5 -54z" />
<glyph unicode="*" horiz-adv-x="843" d="M102 1243q0 -35 41 -51l195 -76q31 -12 31 -22q0 -8 -25 -19l-197 -80q-41 -18 -41 -55q0 -23 15 -45q23 -31 51 -31q20 0 47 23l148 139q16 12 22 12q10 0 10 -18v-8q-2 -8 -2 -11l-39 -190v-10q-2 -10 -2 -13q0 -59 66 -59t65 59v13q-2 8 -2 10l-39 190v11q-2 6 -2 8 q0 18 11 18q8 0 22 -12l148 -141q20 -20 45 -21q33 0 53 31q16 27 16 45q0 37 -43 55l-196 80q-25 10 -25 19q0 10 31 22l196 78q41 14 41 49q0 23 -14 43q-20 35 -53 35q-23 0 -45 -18l-158 -134q-14 -10 -18 -10q-10 0 -11 17v6q2 6 2 10l39 192q0 4 2 11v6q0 47 -65 47 q-66 0 -66 -47v-6q2 -6 2 -11l39 -192q0 -4 2 -10v-6q0 -16 -10 -17q-4 0 -18 10l-156 131q-25 20 -45 21q-31 0 -53 -35q-14 -25 -15 -43z" />
<glyph unicode="+" horiz-adv-x="1187" d="M98 453h426v-453h140v453h426v118h-426v433h-140v-433h-426v-118z" />
<glyph unicode="," horiz-adv-x="552" d="M109 -250l38 -39q4 2 11 8q111 104 176 193.5t65 191.5q0 80 -41 132.5t-98 52.5q-45 0 -72.5 -30t-27.5 -73q0 -35 30 -90q18 -31 27.5 -54.5t9.5 -53.5q0 -59 -31.5 -118.5t-86.5 -119.5z" />
<glyph unicode="-" horiz-adv-x="802" d="M152 442h501v144h-501v-144z" />
<glyph unicode="." horiz-adv-x="552" d="M147 104q0 -55 36 -92t93 -37q59 0 94.5 36t35.5 93q0 59 -36 96.5t-94 37.5q-57 0 -93 -38t-36 -96z" />
<glyph unicode="/" horiz-adv-x="942" d="M188 -31h138l430 1479h-138z" />
<glyph unicode="0" d="M84 684q0 -158 24.5 -287t80 -224t143.5 -146.5t211 -51.5t212 52.5t143 146.5t78.5 223t24.5 287q0 160 -24.5 288t-78.5 223t-143 146.5t-212 51.5t-212 -51.5t-143.5 -146.5t-79 -223t-24.5 -288zM293 684q0 133 12 245.5t41 202t78 139.5t119 50t119 -50t77.5 -139.5 t41 -202t12.5 -245.5t-12.5 -245.5t-41 -202t-78 -139.5t-118.5 -50q-70 0 -119 50t-78 139.5t-41 202t-12 245.5z" />
<glyph unicode="1" d="M223 0h672v59l-172 15q-35 4 -51.5 24.5t-16.5 75.5v1206l-10 13l-422 -72v-51l191 -23q27 -4 38 -20.5t11 -59.5v-993q0 -45 -13.5 -71.5t-54.5 -28.5l-172 -15v-59z" />
<glyph unicode="2" d="M55 20l21 -20h848l69 270l-57 11q-31 -78 -64.5 -101.5t-101.5 -23.5h-524q25 82 115 185t229 204q2 2 41 28q82 61 132 101.5t90 88.5t62.5 108.5t22.5 138.5q0 104 -32 178t-87 119t-128 65.5t-156 20.5q-100 0 -180.5 -27t-135.5 -70t-82.5 -91t-27.5 -89 q0 -47 38.5 -74.5t73.5 -27.5q47 0 60 55q27 113 88 182.5t151 69.5q111 0 157 -78t46 -205q0 -152 -68.5 -258t-220.5 -241q-94 -82 -159.5 -151t-108.5 -130t-68.5 -117.5t-42.5 -120.5z" />
<glyph unicode="3" d="M55 209q0 -35 28 -75t83 -77t136 -59.5t183 -22.5q225 0 354.5 109t129.5 303q0 96 -36 166t-91.5 113t-112.5 63.5t-108 24.5v8q45 8 95 28.5t94 56.5t71.5 91t27.5 127q0 162 -110.5 245t-286.5 83q-96 0 -173 -25t-127 -62.5t-76.5 -79.5t-26.5 -77q0 -43 35.5 -70.5 t64.5 -27.5q39 0 51 41q35 109 94.5 169t143.5 60q57 0 97 -22.5t62.5 -60.5t31.5 -83t9 -92q0 -51 -10 -99.5t-34.5 -88t-67.5 -64.5t-105 -25q-68 0 -143 15q-27 6 -35 6q-37 0 -37 -57t37 -58q8 0 35 6q76 14 143 15q125 0 199 -97.5t74 -238.5q0 -172 -74 -251t-193 -79 q-94 0 -161.5 61.5t-100.5 155.5q-18 57 -61 58q-33 0 -71 -32t-38 -81z" />
<glyph unicode="4" d="M39 410l18 -43h557v-209q0 -49 -15 -65.5t-56 -20.5l-131 -13v-59h540v59l-92 11q-37 4 -49 20t-12 68v209h211v96h-211v905h-150q-156 -227 -314.5 -476t-295.5 -482zM186 463q164 299 424 706h4v-706h-428z" />
<glyph unicode="5" d="M82 209q0 -82 112.5 -158t297.5 -76q242 0 366.5 129t124.5 336q0 209 -116.5 321.5t-307.5 112.5q-82 0 -165 -30.5t-134 -77.5l-4 4l47 383q4 37 16.5 48t42.5 11h510l50 140l-11 16h-684l-20 -18l-41 -686l49 -25q66 76 132.5 110.5t148.5 34.5q51 0 100 -20.5 t88 -63.5t62.5 -113.5t23.5 -168.5q0 -166 -67.5 -268.5t-196.5 -102.5q-100 0 -161.5 60.5t-96.5 160.5q-16 49 -58 49q-35 0 -71.5 -30.5t-36.5 -77.5z" />
<glyph unicode="6" d="M90 633q0 -657 467 -658q223 0 344 125t121 338q0 199 -111.5 312.5t-279.5 113.5q-104 0 -191.5 -54t-142.5 -122h-4q2 324 86 478.5t229 154.5q70 0 118 -53.5t73 -143.5q10 -43 53 -43q39 0 74 27t35 66q0 33 -20.5 70.5t-63.5 71.5t-110 55.5t-153 21.5 q-117 0 -205.5 -41t-156.5 -119q-74 -86 -118 -236.5t-44 -363.5zM297 483q0 104 71.5 190.5t192.5 86.5q104 0 180 -92t76 -260q0 -166 -65.5 -263.5t-190.5 -97.5q-129 0 -196.5 122t-67.5 314z" />
<glyph unicode="7" d="M84 1081h55l21 43q23 47 52.5 67.5t92.5 20.5h553q-23 -80 -69 -177t-154 -253q-143 -205 -218 -378t-75 -345q0 -47 28.5 -65.5t82.5 -18.5q47 0 73.5 18.5t26.5 59.5v33q-2 27 -2 31q0 178 39 328.5t117 285.5q35 61 96 160q86 139 133 232.5t82 222.5l-19 22h-852z " />
<glyph unicode="8" d="M86 373q0 -82 25.5 -152.5t80 -126t142.5 -87.5t209 -32t208 32t142 87.5t80.5 127t25.5 151.5q0 147 -77.5 240.5t-192.5 119.5v6q98 27 161.5 106t63.5 199q0 164 -114.5 256.5t-296.5 92.5q-180 0 -296 -93.5t-116 -255.5q0 -121 63.5 -199.5t161.5 -105.5v-6 q-113 -27 -191.5 -120t-78.5 -240zM291 367q0 143 66.5 234t185.5 91t185.5 -91t66.5 -234t-63.5 -231.5t-188.5 -88.5q-123 0 -187.5 89t-64.5 231zM330 1049q0 123 55 197.5t158 74.5q100 0 155.5 -74.5t57.5 -197.5q0 -117 -54.5 -200t-158.5 -83t-158.5 84t-54.5 199z " />
<glyph unicode="9" d="M74 936q0 -184 113.5 -285.5t281.5 -101.5q92 0 170 47t133 125h4q0 -111 -11 -225.5t-36 -210.5q-31 -111 -88 -174.5t-152 -63.5q-94 0 -143 56.5t-78 148.5q-12 43 -57 43q-33 0 -64.5 -29.5t-31.5 -75.5q0 -78 93 -146.5t263 -68.5q250 0 371 170q66 92 100.5 235.5 t34.5 358.5q0 184 -34 312.5t-97 203.5q-117 137 -322 138q-199 0 -324.5 -124t-125.5 -333zM279 993q0 147 63.5 237.5t179.5 90.5q117 0 180.5 -115.5t63.5 -277.5q0 -70 -14 -109q-25 -74 -83.5 -118t-138.5 -44q-117 0 -184 93.5t-67 242.5z" />
<glyph unicode=":" horiz-adv-x="552" d="M147 104q0 -55 36 -92t93 -37q59 0 94.5 36t35.5 93q0 59 -36 96.5t-94 37.5q-57 0 -93 -38t-36 -96zM147 872q0 -57 36 -94t93 -37q59 0 93.5 36t36.5 95q0 57 -35 94.5t-95 37.5q-57 0 -93 -37t-36 -95z" />
<glyph unicode=";" horiz-adv-x="552" d="M109 -250l38 -39q4 2 11 8q111 104 176 193.5t65 191.5q0 80 -41 132.5t-98 52.5q-45 0 -72.5 -30t-27.5 -73q0 -35 30 -90q18 -31 27.5 -54.5t9.5 -53.5q0 -59 -31.5 -118.5t-86.5 -119.5zM147 872q0 -57 36 -94t93 -37q59 0 93.5 36t36.5 95q0 57 -35 94.5t-95 37.5 q-57 0 -93 -37t-36 -95z" />
<glyph unicode="&#x3c;" horiz-adv-x="1167" d="M94 430l979 -428v141l-858 369l858 369v141l-979 -428v-164z" />
<glyph unicode="=" horiz-adv-x="1167" d="M88 227h991v119h-991v-119zM88 678h991v119h-991v-119z" />
<glyph unicode="&#x3e;" horiz-adv-x="1167" d="M94 2l979 428v164l-979 428v-141l858 -369l-858 -369v-141z" />
<glyph unicode="?" horiz-adv-x="796" d="M59 1210q0 -51 37 -76.5t72 -25.5q25 0 43 12.5t22 36.5q20 113 62.5 166t105.5 53q68 0 99.5 -56t31.5 -151q0 -90 -53 -178t-129 -145q-94 -72 -130 -122t-36 -118q0 -92 65.5 -145t153.5 -53q53 0 105.5 13t91.5 44l-16 41q-29 -8 -62 -8q-45 0 -92 37.5t-47 111.5 q0 127 156 236l18 12q80 55 129 115.5t49 158.5q0 137 -88 208t-235 71q-94 0 -163 -25.5t-111 -64.5t-60.5 -79t-18.5 -69zM262 102q0 -55 35 -91t92 -36t91 36t36 91q0 57 -35 93t-92 36q-55 0 -91 -36.5t-36 -92.5z" />
<glyph unicode="@" horiz-adv-x="1624" d="M94 375q0 -160 58.5 -284t159 -206t225.5 -121.5t256 -39.5q109 0 220 21.5t199 70.5l-16 51q-68 -29 -162 -46.5t-184 -17.5q-164 0 -280.5 52.5t-185.5 138.5t-99.5 186.5t-30.5 202.5q0 141 47 273t135 236.5t213 165t275 60.5q109 0 204 -34.5t165.5 -102.5 t110.5 -166t40 -223q0 -76 -24.5 -149.5t-65.5 -132t-91.5 -92.5t-101.5 -34q-37 0 -57.5 16.5t-20.5 53.5q0 33 9 53l135 529h-133l-9 -17q-29 14 -53 20.5t-59 6.5q-127 0 -226.5 -62.5t-163 -157t-95 -190.5t-31.5 -160q0 -90 40 -128.5t95 -41.5q57 0 113.5 28t107.5 72 t91 93t63 90l4 -2q-29 -86 -29 -151q0 -70 37 -100t106 -30q90 0 173 38t149 105.5t102.5 159t36.5 193.5q0 125 -43 234.5t-126 191.5t-198.5 128t-258.5 46q-160 0 -308.5 -56t-265.5 -165t-184.5 -263.5t-67.5 -342.5zM625 307q0 49 25.5 130t72.5 162t111.5 134 t140.5 53q31 0 51 -6t45 -22q-14 -72 -55 -168t-95.5 -184.5t-115 -145.5t-111.5 -57q-70 0 -69 104z" />
<glyph unicode="A" horiz-adv-x="1300" d="M-59 0h450v59l-106 11q-59 6 -60 41q0 10 6 34q2 4 2 7q29 98 95 303q20 57 30 92h459l137 -391q10 -31 11 -43q0 -39 -66 -45l-92 -9v-59h524v59q-49 4 -75.5 9.5t-44 16.5t-31 33.5t-27.5 63.5l-434 1235h-152l-215 -606l-35 -100q-66 -184 -105.5 -295t-80.5 -215 q-33 -86 -65.5 -112t-124.5 -30v-59zM385 625q49 152 141 422q41 113 58 163h6l203 -585h-408z" />
<glyph unicode="B" horiz-adv-x="1323" d="M72 0h635q244 0 378 96t134 301q0 170 -111 269q-49 43 -115.5 69.5t-144.5 36.5v4q143 29 224 113t81 203q0 166 -127 251q-111 74 -362 74h-592v-59q78 -6 110.5 -10.5t49 -16.5t20.5 -33.5t4 -70.5v-1037q0 -49 -4 -70.5t-20.5 -33.5t-49 -16t-110.5 -11v-59zM459 229 v498h147q190 0 291.5 -90t101.5 -254q0 -88 -27.5 -149.5t-75.5 -96.5t-108.5 -50t-132.5 -15q-121 0 -158.5 30.5t-37.5 126.5zM459 799v444q0 37 4 55.5t19.5 28.5t46 14.5t96.5 4.5q61 0 116.5 -13.5t99.5 -44.5t70.5 -83t26.5 -126q0 -145 -88 -212.5t-254 -67.5h-137z " />
<glyph unicode="C" horiz-adv-x="1400" d="M98 698q0 -176 50.5 -318t144.5 -237q92 -92 233.5 -133t323.5 -41q121 0 248 29t202 70l29 342h-61q-23 -86 -55.5 -151.5t-83 -115t-122 -76t-169.5 -26.5q-150 0 -251.5 64.5t-157.5 166t-78.5 214t-22.5 219.5q0 133 27.5 251.5t89 214t161 150.5t236.5 55 q164 0 264 -76.5t129 -250.5h61v319q-76 35 -189.5 57.5t-244.5 22.5q-188 0 -336.5 -54.5t-240.5 -156.5q-90 -102 -138.5 -235.5t-48.5 -303.5z" />
<glyph unicode="D" horiz-adv-x="1595" d="M72 0h639q154 0 283.5 29.5t236.5 101.5q123 84 194.5 234.5t71.5 367.5q0 158 -46 288t-138 218q-98 92 -236.5 135t-324.5 43h-680v-59q78 -6 110.5 -10.5t49 -16.5t20.5 -33.5t4 -70.5v-1037q0 -49 -4 -70.5t-20.5 -33.5t-49 -16t-110.5 -11v-59zM459 256v973 q0 41 7 62.5t29.5 33.5t68.5 16.5t132 4.5q160 -2 271.5 -49.5t177 -130.5t94.5 -193.5t29 -247.5q0 -188 -43 -316t-123 -202t-186.5 -104.5t-243.5 -30.5q-72 0 -112 7t-61.5 25.5t-30.5 53.5t-9 98z" />
<glyph unicode="E" horiz-adv-x="1241" d="M72 0h1085l25 354h-62q-16 -94 -44.5 -149t-73 -84t-110 -39t-169.5 -10q-160 0 -213 20q-31 14 -41 45t-10 109v452h286q66 0 103 -9t55.5 -29.5t26.5 -50t16 -89.5h62v432h-62q-8 -55 -16 -85.5t-25 -49.5q-39 -41 -160 -41h-286v496q0 49 13 61.5t63 12.5h200 q90 0 144.5 -11.5t87 -40t49 -78t28.5 -135.5h62v336h-1034v-59q78 -6 110.5 -10.5t49 -16.5t20.5 -33.5t4 -70.5v-1037q0 -49 -4 -70.5t-20.5 -33.5t-49 -16t-110.5 -11v-59z" />
<glyph unicode="F" horiz-adv-x="1187" d="M72 0h604v59q-90 6 -129 10.5t-58.5 16.5t-24.5 33.5t-5 70.5v480h286q63 0 101.5 -9.5t57 -30t26.5 -50t16 -91.5h62v439h-62q-8 -59 -16 -90t-26.5 -51.5t-56.5 -29.5t-102 -9h-286v524q0 51 12 62.5t64 11.5h202q92 0 147.5 -11.5t88.5 -38t50 -76t28 -130.5h61v327 h-1040v-59q78 -6 110.5 -10.5t49 -16.5t20.5 -33.5t4 -70.5v-1037q0 -49 -4 -70.5t-20.5 -33.5t-49 -16t-110.5 -11v-59z" />
<glyph unicode="G" horiz-adv-x="1503" d="M98 682q0 -193 70 -346.5t184 -235.5q109 -76 235 -103.5t281 -27.5q100 0 231.5 25.5t239.5 60.5v404q0 43 4.5 63.5t18.5 32.5t41 18.5t82 12.5v59h-565v-59q82 -6 123.5 -12.5t62 -18.5t26 -32.5t5.5 -63.5v-277q0 -51 -17.5 -73.5t-52.5 -36.5q-80 -31 -180 -31 q-166 0 -277.5 64.5t-173 168t-85 217t-23.5 224.5q0 129 27.5 245.5t90 211t166 149.5t248.5 55q170 0 268.5 -81t131.5 -253h61v322q-76 37 -196.5 60.5t-243.5 23.5q-221 0 -379 -66.5t-250 -185.5q-78 -102 -116 -228t-38 -286z" />
<glyph unicode="H" horiz-adv-x="1634" d="M72 0h571v59q-78 6 -109.5 10.5t-49 16.5t-21.5 33.5t-4 70.5v508h717v-508q0 -49 -4.5 -70.5t-20.5 -33.5t-49 -16t-111 -11v-59h572v59q-78 6 -110 10.5t-49.5 16.5t-21.5 33.5t-4 70.5v1037q0 49 4 70.5t21.5 33.5t50.5 16.5t109 10.5v59h-572v-59q78 -6 111 -10.5 t49 -16.5t20.5 -33.5t4.5 -70.5v-451h-717v451q0 49 4 70.5t21.5 33.5t50 16.5t108.5 10.5v59h-571v-59q78 -6 110.5 -10.5t49 -16.5t20.5 -33.5t4 -70.5v-1037q0 -49 -4 -70.5t-20.5 -33.5t-49 -16t-110.5 -11v-59z" />
<glyph unicode="I" horiz-adv-x="714" d="M72 0h571v59q-78 6 -109.5 10.5t-49 16.5t-21.5 33.5t-4 70.5v1037q0 49 4 70.5t21.5 33.5t50 16.5t108.5 10.5v59h-571v-59q78 -6 110.5 -10.5t49 -16.5t20.5 -33.5t4 -70.5v-1037q0 -49 -4 -70.5t-20.5 -33.5t-49 -16t-110.5 -11v-59z" />
<glyph unicode="J" horiz-adv-x="716" d="M0 -182l10 -51q61 4 131 20t127 43q127 57 168 169t41 294v934q0 49 4 70.5t21.5 33.5t50.5 16.5t109 10.5v59h-572v-59q78 -6 110.5 -10.5t49 -16.5t20.5 -33.5t4 -70.5v-946q0 -141 -21.5 -224.5t-62.5 -132.5q-33 -39 -83 -65.5t-107 -40.5z" />
<glyph unicode="K" horiz-adv-x="1347" d="M72 0h571v59q-78 6 -109.5 10.5t-49 16.5t-21.5 33.5t-4 70.5v541h4l2 -8q68 -102 137 -199q142 -194 281 -352q84 -94 167 -132t187 -44l129 -6v49q-57 12 -110.5 52t-127.5 116q-193 207 -331 387q-102 131 -162 223q100 113 211.5 222.5t206.5 191.5q43 39 72.5 60.5 t62.5 34.5t75 20.5t111 11.5v59h-497v-59l77 -6q35 0 35 -25q0 -18 -33 -57q-47 -53 -103 -113.5t-121.5 -130.5t-131 -137.5t-141.5 -145.5v484q0 49 4 70.5t21.5 33.5t50 16.5t108.5 10.5v59h-571v-59q78 -6 110.5 -10.5t49 -16.5t20.5 -33.5t4 -70.5v-1037 q0 -49 -4 -70.5t-20.5 -33.5t-49 -16t-110.5 -11v-59z" />
<glyph unicode="L" horiz-adv-x="1163" d="M72 0h1063l24 367h-61q-14 -98 -44 -157.5t-73 -89.5t-101.5 -39t-150.5 -9q-166 0 -219 20q-31 14 -41 45t-10 109v981q0 49 4 70.5t22.5 33.5t53 16.5t116.5 10.5v59h-583v-59q78 -6 110.5 -10.5t49 -16.5t20.5 -33.5t4 -70.5v-1037q0 -49 -4 -70.5t-20.5 -33.5 t-49 -16t-110.5 -11v-59z" />
<glyph unicode="M" horiz-adv-x="1933" d="M68 1358q78 -6 110.5 -10.5t49 -16.5t20.5 -33.5t4 -70.5v-811q0 -160 -14 -254q-8 -59 -43 -77.5t-125 -25.5v-59h485v59q-111 8 -148.5 25.5t-46.5 77.5q-14 94 -14 254v813h4l529 -1204h55l534 1204h7v-1039q0 -49 -4.5 -70.5t-20.5 -33.5t-49 -16t-111 -11v-59h572 v59q-78 6 -110 10.5t-49 16.5t-21.5 33.5t-4.5 70.5v1037q0 49 4.5 70.5t21.5 33.5t50 16.5t109 10.5v59h-412q-61 -162 -207 -479l-29 -64l-245 -548h-4l-242 546q-20 45 -84 191q-106 231 -156 354h-415v-59z" />
<glyph unicode="N" horiz-adv-x="1597" d="M70 1358q78 -6 110.5 -10.5t49 -16.5t20.5 -33.5t4 -70.5v-811q0 -160 -14 -254q-8 -59 -43 -77.5t-125 -25.5v-59h485v59q-111 8 -148.5 25.5t-46.5 77.5q-14 94 -14 254v817h4q543 -762 873 -1233h135v1001q0 160 14 254q8 59 43 78t125 25v59h-485v-59 q111 -8 148.5 -24.5t45.5 -78.5q14 -94 15 -254v-718l-4 4q-401 565 -799 1130h-393v-59z" />
<glyph unicode="O" horiz-adv-x="1560" d="M98 709q0 -170 45 -308.5t129 -232.5q176 -199 508 -199t508 199q84 92 129 230.5t45 310.5t-45 310t-129 230q-176 199 -508 199t-508 -199q-84 -94 -129 -231t-45 -309zM328 709q0 125 21.5 240.5t71.5 213t139 155.5t220 58t220.5 -58t140.5 -155.5t71.5 -213 t20.5 -240.5t-20.5 -240t-71.5 -213t-140.5 -156.5t-220.5 -58.5t-220 59.5t-139 155.5t-71.5 212t-21.5 241z" />
<glyph unicode="P" horiz-adv-x="1228" d="M72 0h604v59q-90 6 -129 10.5t-58.5 16.5t-24.5 33.5t-5 70.5v392h116q154 0 263 26q63 16 122.5 47t108.5 79t78 120t29 162q0 113 -43 193.5t-117 125.5q-70 43 -164 62.5t-209 19.5h-571v-59q78 -6 110.5 -10.5t49 -16.5t20.5 -33.5t4 -70.5v-1037q0 -49 -4 -70.5 t-20.5 -33.5t-49 -16t-110.5 -11v-59zM459 733v537q0 45 29.5 60.5t125.5 15.5q160 0 250 -89.5t90 -255.5q0 -92 -27.5 -158.5t-75.5 -108.5t-109.5 -61.5t-131.5 -19.5q-96 0 -123.5 12.5t-27.5 67.5z" />
<glyph unicode="Q" horiz-adv-x="1560" d="M98 709q0 -170 45 -308.5t129 -232.5q154 -176 428 -195q82 -168 218.5 -268t295.5 -100q109 0 172 39l-6 32q-20 -2 -53 -2q-49 0 -118.5 34t-147.5 118q-39 41 -69.5 83t-49.5 75q213 35 346 184q84 92 129 230.5t45 310.5t-45 310t-129 230q-176 199 -508 199 t-508 -199q-84 -94 -129 -231t-45 -309zM328 709q0 125 21.5 240.5t71.5 213t139 155.5t220 58t220.5 -58t140.5 -155.5t71.5 -213t20.5 -240.5t-20.5 -240t-71.5 -213t-140.5 -156.5t-220.5 -58.5t-220 59.5t-139 155.5t-71.5 212t-21.5 241z" />
<glyph unicode="R" horiz-adv-x="1318" d="M72 0h571v59q-78 6 -109.5 10.5t-49 16.5t-21.5 33.5t-4 70.5v478h141q100 0 163.5 -40t88.5 -139q6 -25 25 -127q8 -47 17 -99t17 -87q23 -94 79.5 -135t150.5 -41h166v59q-109 12 -152 79t-59 192q-23 162 -68 235q-31 49 -82 84t-129 53v5q150 29 242 124t92 236 q0 78 -25.5 140.5t-83 110.5t-149.5 73.5t-223 25.5h-598v-59q78 -6 110.5 -10.5t49 -16.5t20.5 -33.5t4 -70.5v-1037q0 -49 -4 -70.5t-20.5 -33.5t-49 -16t-110.5 -11v-59zM459 739v504q0 66 25.5 84.5t123.5 18.5q63 0 119.5 -13.5t103 -46.5t74 -92t27.5 -145 q0 -158 -80 -234t-231 -76h-162z" />
<glyph unicode="S" horiz-adv-x="1107" d="M102 420l21 -328q63 -59 175 -91t228 -32q131 0 228.5 34t159 93.5t90 133t28.5 155.5q0 170 -101.5 269.5t-301.5 174.5l-66 25q-113 41 -182.5 108.5t-69.5 153.5q0 117 69 188.5t193 71.5q258 0 308 -307h63v289q-51 41 -147.5 65.5t-200.5 24.5q-96 0 -181 -24.5 t-150.5 -74t-102.5 -124t-37 -172.5q0 -78 29.5 -139.5t82 -109.5t121 -85t154.5 -70l37 -14q43 -16 90 -41t91 -62.5t74 -91t30 -116.5q0 -131 -79 -207t-216 -76q-141 0 -236.5 101.5t-134.5 277.5h-66z" />
<glyph unicode="T" horiz-adv-x="1271" d="M45 1077h61q10 90 25.5 140.5t47.5 78t86 39t149 11.5h121v-1156q0 -49 -5.5 -70.5t-26 -32.5t-60.5 -16t-134 -12v-59h654v59q-94 6 -134.5 10.5t-60.5 16.5t-25.5 33.5t-5.5 70.5v1156h121q94 0 148.5 -11.5t86 -39t47 -78t25.5 -140.5h62v340h-1182v-340z" />
<glyph unicode="U" horiz-adv-x="1619" d="M59 1358q78 -6 111 -10.5t49.5 -16.5t20.5 -33.5t4 -70.5v-709q0 -88 15 -166t40 -133q35 -72 90 -122t122 -77.5t141.5 -39t156.5 -11.5t157.5 11.5t143.5 39t123 76.5t88 123q27 55 41 133t14 170v705q0 49 4 70.5t21.5 33.5t50.5 16.5t109 10.5v59h-572v-59 q78 -6 111 -10.5t49 -16.5t20.5 -33.5t4.5 -70.5v-664q0 -143 -23 -239.5t-70 -159.5q-94 -123 -272 -123q-174 0 -270 123q-47 63 -70 159.5t-23 239.5v664q0 49 4.5 70.5t21.5 33.5t50 16.5t109 10.5v59h-572v-59z" />
<glyph unicode="V" horiz-adv-x="1298" d="M-37 1358q90 -4 121 -22.5t59 -98.5q57 -147 110.5 -292.5t102.5 -289.5l232 -655h145l262 707q63 170 121 317t94 227q31 70 61 86.5t118 20.5v59h-453v-59l113 -10q27 0 38 -9.5t11 -25.5q0 -18 -4 -29q-14 -61 -53.5 -175t-106.5 -300l-213 -588l-4 4l-191 527 q-57 162 -99 283.5t-81 238.5l-2 10q-6 20 -6 29q0 35 47 35l107 10v59h-529v-59z" />
<glyph unicode="W" horiz-adv-x="1925" d="M-27 1358q49 -2 76 -6t43.5 -16.5t28.5 -37t26 -73.5q49 -168 87 -302.5t75 -269.5l174 -653h158l322 1135h4q174 -545 342 -1135h155l205 731q10 33 53 191q68 244 88 299q16 47 29.5 71.5t33 37.5t48.5 18.5t80 9.5v59h-469v-59l127 -12q27 0 38 -12.5t11 -35.5 q0 -20 -4 -30q-6 -35 -20.5 -94.5t-47.5 -182.5q-27 -104 -41 -160l-151 -585h-6q-233 758 -346 1134h-154l-313 -1134h-4q-123 403 -279 1018q-6 31 -6 45q0 39 49 39l102 10v59h-514v-59z" />
<glyph unicode="X" horiz-adv-x="1277" d="M-39 0h490v59l-132 15q-31 0 -30 26q0 18 8 29q145 262 297 496h4l311 -494q10 -14 11 -31q0 -29 -43 -28l-113 -13v-59h582v59q-59 4 -92 10.5t-55.5 17.5t-41 30.5t-43.5 58.5l-401 621q82 121 167 236.5t152 199.5q35 43 58.5 65.5t47 35t52.5 17.5t78 7v59h-453v-59 l98 -8q35 0 35 -25q0 -14 -16 -43q-109 -180 -264 -405h-4l-256 401q-16 27 -17 41q0 29 35 29l98 10v59h-528v-59q51 -2 82 -7t52.5 -17.5t40.5 -36t48 -68.5l328 -522q-47 -70 -150 -224q-80 -117 -132 -193.5t-85 -119.5q-29 -39 -47 -56.5t-38.5 -28.5t-50.5 -16.5 t-83 -9.5v-59z" />
<glyph unicode="Y" horiz-adv-x="1204" d="M-25 1358q84 -2 117 -20.5t66 -82.5q92 -170 179 -333.5t157 -307.5q31 -59 30 -118v-306q0 -47 -5 -69.5t-24.5 -33.5t-59.5 -16t-128 -12v-59h637v59q-88 6 -128 11.5t-59.5 16.5t-24.5 33.5t-5 69.5v314q0 37 6 63.5t21 57.5q37 74 87 170t91 171.5t82 148.5t61 108 q33 51 48.5 72.5t36 34.5t50 19.5t84.5 8.5v59h-448v-59l110 -10q35 0 35 -31q0 -10 -10 -35q-16 -41 -50 -112.5t-73 -151.5t-85 -172t-91 -180h-4q-186 340 -316 618q-8 16 -8 33q0 29 31 29l121 12v59h-531v-59z" />
<glyph unicode="Z" horiz-adv-x="1249" d="M18 27l11 -27h1167l21 365h-66q-14 -98 -42 -154.5t-77 -87.5t-126 -41t-204 -10h-413q317 467 915 1319l-12 26h-1047v-352h66q10 94 27.5 146.5t54.5 82t100.5 41t173.5 11.5h367q-369 -541 -916 -1319z" />
<glyph unicode="[" horiz-adv-x="675" d="M272 -262h326v55q-76 4 -112.5 8t-55 15.5t-24 31t-5.5 58.5v1343q0 39 5.5 58.5t24 31t55 15.5t112.5 8v55h-326v-1679z" />
<glyph unicode="\" horiz-adv-x="942" d="M186 1448l432 -1479h138l-432 1479h-138z" />
<glyph unicode="]" horiz-adv-x="675" d="M78 -207v-55h325v1679h-325v-55q76 -4 112.5 -8t55 -15.5t23.5 -31t5 -58.5v-1343q0 -39 -5 -58.5t-23.5 -31t-55 -15.5t-112.5 -8z" />
<glyph unicode="^" horiz-adv-x="1167" d="M115 467h145l328 760l319 -760h146l-391 901h-146z" />
<glyph unicode="_" horiz-adv-x="1024" d="M0 -154v-102h1024v102h-1024z" />
<glyph unicode="`" horiz-adv-x="819" d="M100 1393q0 -29 29 -53.5t86 -57.5l309 -172l31 41l-244 246q-45 47 -74.5 65.5t-56.5 18.5q-25 0 -52.5 -29t-27.5 -59z" />
<glyph unicode="a" horiz-adv-x="1081" d="M100 266q0 -121 78 -206t217 -85q80 2 149.5 35t147.5 82q2 2 8 6q25 -61 53.5 -92t80.5 -31q57 0 120.5 16.5t120.5 45.5l-12 49q-25 -6 -64 -6q-29 0 -41 4q-31 8 -51 48t-20 128v496q0 55 -10.5 100t-44 84t-102 63.5t-179.5 24.5q-84 0 -160 -20.5t-133 -54 t-89 -74.5t-32 -84q0 -45 39 -71t76 -26q31 0 44 13.5t21 44.5q33 106 88.5 153t122.5 47q72 0 123 -46t51 -158v-86q-27 -29 -104.5 -57.5t-210.5 -67.5q-55 -18 -96 -31q-102 -31 -146.5 -96.5t-44.5 -147.5zM307 295q0 72 37 114t123 74l29 11q84 33 132 52t74 36v-289 q0 -57 -19 -99t-51 -66t-68 -34t-68 -10q-92 0 -140.5 58.5t-48.5 152.5z" />
<glyph unicode="b" horiz-adv-x="1234" d="M41 1417l78 -8q41 -4 53 -20.5t12 -73.5v-1323l37 -17l82 80q66 -37 136.5 -58.5t174.5 -21.5q109 0 200 29t160.5 92.5t109.5 169.5t40 258q0 68 -12 147t-52 161.5t-121 139t-210 56.5q-84 0 -155.5 -31.5t-153.5 -85.5q-33 -23 -43 -28v624l-15 13l-321 -52v-51z M377 334v323q0 41 4 68t16 49q72 143 250 144q39 0 83 -15.5t85 -58.5t68.5 -125t27.5 -207q0 -229 -72.5 -347t-222.5 -118q-168 0 -225 158q-14 43 -14 129z" />
<glyph unicode="c" horiz-adv-x="1026" d="M100 492q0 -254 122 -385.5t353 -131.5q57 0 117 16.5t115 51.5t98.5 92t63.5 135l-60 29q-49 -111 -117.5 -164t-177.5 -53q-86 0 -145 40t-93 106.5t-48.5 143.5t-14.5 156q0 217 74 322.5t188 105.5q68 0 115 -46t80 -132q10 -29 23.5 -41t40.5 -12q41 0 80.5 26.5 t39.5 77.5q0 76 -99 137.5t-257 61.5q-135 0 -231.5 -44t-154.5 -118.5t-85 -170t-27 -203.5z" />
<glyph unicode="d" horiz-adv-x="1234" d="M100 481q0 -231 114 -368.5t314 -137.5q80 0 156 35t162 105v-101l16 -14h332v59q-59 4 -88 9.5t-43 15.5t-18.5 30.5t-4.5 63.5v1329l-14 13l-321 -52v-51l77 -8q41 -4 53.5 -20.5t12.5 -73.5v-336q-92 49 -227 49q-242 0 -379 -141q-141 -147 -142 -406zM313 506 q0 209 77 329.5t228 120.5q74 0 129.5 -32.5t81.5 -96.5q12 -25 15.5 -49t3.5 -69v-361q0 -74 -14 -115q-29 -76 -91.5 -111.5t-146.5 -35.5q-135 0 -209 118t-74 302z" />
<glyph unicode="e" horiz-adv-x="1062" d="M100 494q0 -248 115 -383.5t358 -135.5q160 2 257.5 79t142.5 210l-62 33q-49 -102 -117.5 -159.5t-179.5 -57.5q-88 0 -147 38t-93 102.5t-47.5 144t-13.5 174.5h590q39 0 60.5 15t21.5 62q0 59 -14.5 126t-56.5 132.5t-127 109.5t-216 44q-231 0 -351 -146.5 t-120 -387.5zM315 616q0 41 9.5 96.5t35 112t75.5 94t124 37.5q68 0 111 -29.5t64.5 -72.5t29.5 -88t8 -84q0 -33 -14.5 -49.5t-55.5 -16.5h-387z" />
<glyph unicode="f" horiz-adv-x="663" d="M61 922h158v-744q0 -43 -4 -63.5t-17.5 -30.5t-40 -15.5t-91.5 -9.5v-59h540v59q-80 4 -114.5 8.5t-52 14.5t-22.5 29.5t-5 64.5v746h250v82h-250l-9 229q0 70 10.5 114t26 65.5t31.5 28.5t31 7q37 0 70.5 -28.5t68.5 -110.5q18 -35 55 -35q35 0 68 26.5t33 69.5 q0 57 -67.5 103.5t-182.5 46.5q-84 0 -152.5 -35t-107.5 -94q-68 -102 -68 -316v-71h-158v-82z" />
<glyph unicode="g" horiz-adv-x="1075" d="M86 -197q0 -147 126 -223t316 -76q98 0 188.5 20.5t162.5 63.5q74 45 117.5 117t43.5 164q0 156 -108.5 227.5t-286.5 71.5h-164q-98 0 -134 25.5t-36 62.5q0 39 35 64.5t70 35.5q59 -6 104 -6q78 0 150.5 18.5t132 58.5t95.5 104.5t36 152.5q0 63 -17.5 114.5 t-44.5 78.5l162 24l41 129l-16 19l-262 -84q-41 29 -117 46t-148 17q-113 0 -194.5 -30.5t-131.5 -82t-73.5 -111t-23.5 -120.5q0 -129 67.5 -206t153.5 -99v-4q-88 -35 -138.5 -80t-50.5 -102q0 -55 54.5 -103.5t126.5 -56.5v-4q-47 -16 -83 -30.5t-72 -40.5t-58.5 -64.5 t-22.5 -90.5zM281 -186q0 104 63 153q61 47 211 47q147 0 230 -43.5t83 -152.5q0 -117 -87 -179.5t-206 -62.5q-131 0 -212.5 64.5t-81.5 173.5zM317 684q0 141 61.5 206.5t153.5 65.5q84 0 144.5 -66.5t60.5 -205.5q0 -125 -58 -193.5t-151 -68.5q-90 0 -150.5 69.5 t-60.5 192.5z" />
<glyph unicode="h" horiz-adv-x="1253" d="M43 0h498v59q-57 4 -86 9.5t-44.5 16.5t-19.5 31.5t-4 61.5v479q0 43 4 67t15 44q33 63 100 106.5t145 43.5q106 0 160.5 -62.5t54.5 -193.5v-484q0 -43 -4 -62.5t-18.5 -30.5t-42 -16.5t-88.5 -9.5v-59h499v59q-57 4 -85.5 9.5t-44 16.5t-19.5 31.5t-4 61.5v524 q0 156 -80 241t-223 85q-92 0 -163 -31.5t-181 -105.5l-27 -19v635l-14 13l-320 -52v-51l78 -10q41 -4 53.5 -20.5t12.5 -71.5v-1137q0 -43 -4.5 -62.5t-18.5 -30.5t-41 -16.5t-88 -9.5v-59z" />
<glyph unicode="i" horiz-adv-x="606" d="M66 0h499v59q-59 4 -87.5 9.5t-43 15.5t-18.5 30.5t-4 63.5v838l-15 12l-321 -51v-51l78 -11q41 -4 53 -20t12 -72v-645q0 -43 -4 -63.5t-17.5 -30.5t-40 -15.5t-91.5 -9.5v-59zM188 1337q0 -53 35 -88t90 -35q57 0 91 35t34 88q0 57 -34.5 92t-90.5 35q-55 0 -90 -35.5 t-35 -91.5z" />
<glyph unicode="j" horiz-adv-x="583" d="M-68 -446l5 -50q66 0 151 19q184 41 253 161.5t69 329.5v1002l-15 12l-321 -51v-51l78 -11q41 -4 53 -21t12 -71v-749q0 -127 -11 -222.5t-42 -152.5q-27 -53 -82 -88t-150 -57zM188 1337q0 -53 35 -88t90 -35q57 0 91 35t34 88q0 57 -34.5 92t-90.5 35q-55 0 -90 -35.5 t-35 -91.5z" />
<glyph unicode="k" horiz-adv-x="1083" d="M41 0h500v59q-59 4 -88 9.5t-43.5 15.5t-18.5 30.5t-4 63.5v342h4q31 -47 71 -102.5t89 -116.5t92 -109.5t84 -91.5q53 -53 110.5 -77.5t110.5 -26.5l154 -6v57q-47 12 -88 38t-88 73q-43 43 -98.5 103.5t-103.5 117.5t-91 113.5t-72 95.5q-8 12 -8 20q0 10 14 27 q72 82 125 132t109 91q55 41 104 60.5t135 27.5v58h-211q-51 0 -74.5 -11.5t-54.5 -48.5q-25 -31 -78 -97.5t-95 -118.5t-79.5 -102.5t-56.5 -76.5h-4v958l-14 13l-322 -52v-51l78 -8q41 -4 53.5 -20.5t12.5 -73.5v-1137q0 -43 -4.5 -63.5t-17.5 -30.5t-40 -15.5t-92 -9.5 v-59z" />
<glyph unicode="l" horiz-adv-x="581" d="M41 0h500v59q-59 4 -88 9.5t-43.5 15.5t-18.5 30.5t-4 63.5v1329l-14 13l-322 -52v-51l78 -8q41 -4 53.5 -20.5t12.5 -73.5v-1137q0 -43 -4.5 -63.5t-17.5 -30.5t-40 -15.5t-92 -9.5v-59z" />
<glyph unicode="m" horiz-adv-x="1900" d="M66 0h499v59q-59 4 -87.5 9.5t-43 15.5t-18.5 30.5t-4 63.5v479q0 41 3 64.5t13 44.5q31 66 96.5 109t145.5 43q63 0 103 -22t59.5 -56.5t26.5 -78.5t7 -99v-484q0 -43 -4 -63.5t-17.5 -30.5t-40 -15.5t-91.5 -9.5v-59h499v59q-59 4 -87.5 9.5t-43 15.5t-18.5 30.5 t-4 63.5v479q0 43 3 65.5t11 47.5q25 63 87.5 104t146.5 44q100 0 153 -63.5t53 -192.5v-484q0 -43 -4 -63.5t-17 -30.5t-40 -15.5t-92 -9.5v-59h500v59q-59 4 -88 9.5t-43.5 15.5t-18.5 30.5t-4 63.5v524q0 156 -80 241t-225 85q-90 0 -163 -35t-153 -92q-33 -23 -45 -31 q-39 76 -103.5 117t-166.5 41q-98 0 -179 -41t-169 -106l-10 -9l-19 156l-317 -51v-51l78 -11q41 -4 53 -20t12 -72v-645q0 -43 -4 -63.5t-17.5 -30.5t-40 -15.5t-91.5 -9.5v-59z" />
<glyph unicode="n" horiz-adv-x="1277" d="M66 0h499v59q-59 4 -87.5 9.5t-43 15.5t-18.5 30.5t-4 63.5v479q0 39 4 63.5t16 49.5q35 63 100.5 105.5t143.5 42.5q106 0 160.5 -62.5t54.5 -193.5v-484q0 -43 -4 -63.5t-17.5 -30.5t-40 -15.5t-92.5 -9.5v-59h500v59q-59 4 -88 9.5t-43 15.5t-18.5 30.5t-4.5 63.5v524 q0 156 -79.5 241t-221.5 85q-90 0 -159.5 -30.5t-173.5 -98.5l-39 -27l-29 156l-305 -51v-51l78 -11q41 -4 53 -20t12 -72v-645q0 -43 -4 -63.5t-17.5 -30.5t-40 -15.5t-91.5 -9.5v-59z" />
<glyph unicode="o" horiz-adv-x="1191" d="M100 502q0 -252 124 -389.5t366 -137.5q246 0 368.5 136.5t122.5 390.5t-122.5 390t-368.5 136q-242 0 -366 -137t-124 -389zM313 502q0 217 70 335.5t207 118.5q139 0 208.5 -118.5t69.5 -335.5t-69.5 -336t-208.5 -119q-137 0 -207 119t-70 336z" />
<glyph unicode="p" horiz-adv-x="1255" d="M51 -412v-59h531v59q-72 4 -106 9.5t-51 15.5t-22.5 30.5t-5.5 63.5v316q35 -18 100.5 -33t133.5 -15q109 0 201 28t162.5 91.5t110.5 169.5t40 260q0 76 -12.5 155t-52.5 161t-121.5 135t-213.5 53q-84 0 -154.5 -33.5t-152.5 -91.5q-27 -18 -41 -26l-26 151l-310 -51 v-51l78 -11q41 -4 53.5 -20t12.5 -72v-1116q0 -45 -4 -64.5t-18.5 -30.5t-41 -15.5t-90.5 -8.5zM397 322v335q0 37 6.5 62.5t20.5 54.5q72 143 244 144q37 0 81 -15.5t86 -59.5t69.5 -125t27.5 -206q0 -229 -74 -347t-225 -118q-80 0 -138.5 39t-82.5 111q-14 43 -15 125z " />
<glyph unicode="q" horiz-adv-x="1220" d="M100 477q0 -240 117 -371t309 -131q80 0 156 34t166 100v-402q0 -43 -4 -63.5t-19.5 -31.5t-44 -15.5t-96.5 -8.5v-59h510v59q-59 4 -87 9.5t-43 15.5t-19.5 30.5t-4.5 63.5v1321h-55l-88 -63q-57 31 -129 47t-141 16q-244 0 -383 -141q-70 -72 -107 -173.5t-37 -236.5z M313 504q0 203 74 327.5t223 124.5q84 0 138.5 -32.5t82.5 -108.5q16 -43 17 -119v-346q0 -74 -14 -112q-29 -80 -85.5 -116t-144.5 -36q-145 0 -218 116.5t-73 301.5z" />
<glyph unicode="r" horiz-adv-x="806" d="M66 0h540v59q-76 4 -111.5 9.5t-54 15.5t-23.5 30.5t-5 63.5v479q0 106 36.5 158.5t79.5 52.5q25 0 53.5 -10t73.5 -35q18 -10 41 -10q37 0 66 34t29 81q0 39 -27 69.5t-82 30.5q-53 0 -107.5 -35t-162.5 -129l-25 164l-311 -51v-51l78 -11q41 -4 53 -20t12 -72v-645 q0 -43 -4 -63.5t-18.5 -30.5t-41 -15.5t-89.5 -9.5v-59z" />
<glyph unicode="s" horiz-adv-x="903" d="M96 342l21 -268q53 -47 139 -73t180 -26q178 0 280.5 85t102.5 219q0 129 -76.5 202.5t-244.5 124.5q-43 14 -78 27.5t-66.5 34t-53 51.5t-21.5 72q0 78 52 121.5t132 43.5q90 0 145.5 -52t75.5 -136q4 -16 8 -49h60v239q-47 35 -119 52.5t-146 17.5q-170 0 -271 -78 t-101 -221q0 -117 82 -184.5t227 -112.5q47 -14 82 -28.5t66.5 -39t52 -61.5t20.5 -86q0 -76 -53 -123t-137 -47q-106 0 -177 63.5t-108 176.5q0 4 -6 28q-6 23 -8 27h-60z" />
<glyph unicode="t" horiz-adv-x="714" d="M63 922h148v-713q0 -74 23.5 -121t59.5 -71.5t74 -33t70 -8.5q70 0 136.5 27t125.5 64l-16 43q-63 -27 -145 -27q-59 0 -97.5 48t-38.5 157v635h265v82h-265v258h-59l-125 -258h-156v-82z" />
<glyph unicode="u" horiz-adv-x="1251" d="M53 926l78 -11q41 -4 53.5 -20t12.5 -72v-540q0 -84 23.5 -144.5t63.5 -96.5t92 -51.5t111 -15.5q90 0 166 33t160 86q35 23 49 29l21 -123h327v59q-59 4 -86.5 9.5t-43 15.5t-19.5 30.5t-4 63.5v838l-15 12l-321 -51v-51l78 -11q41 -4 53 -20t12 -72v-461 q0 -90 -16 -122q-35 -72 -103.5 -113t-148.5 -41q-94 0 -150.5 59.5t-56.5 173.5v697l-14 12l-322 -51v-51z" />
<glyph unicode="v" horiz-adv-x="1042" d="M-14 944q74 -6 98.5 -21.5t46.5 -70.5q49 -121 133 -354l21 -56l157 -442h148l182 496q35 96 74 189t72 167l2 4q23 53 49 69.5t98 18.5v60h-389v-60l100 -10q35 0 35 -35q0 -12 -4 -20q-12 -47 -39 -131t-63 -185l-138 -379h-4l-125 344q-25 68 -78 222q-29 84 -43 124 q-6 18 -6 29q0 31 39 31l92 10v60h-458v-60z" />
<glyph unicode="w" horiz-adv-x="1583" d="M-4 944q68 -4 93.5 -18.5t41.5 -69.5q23 -70 33 -104q156 -485 229 -752h156l242 780h6q129 -389 252 -780h155q25 88 59.5 199.5t55.5 181.5q37 115 108 336q27 84 35 108q25 76 52.5 95.5t107.5 23.5v60h-403v-60l116 -10q33 0 33 -37q0 -20 -4 -31q-12 -59 -48 -192 t-87 -312q-20 -76 -49 -180h-4q-102 309 -256 797h-156l-238 -797h-4q-47 152 -127 434q-51 176 -76 261q0 6 -2 16q-2 6 -2 8q0 37 41 37l72 6v60h-432v-60z" />
<glyph unicode="x" horiz-adv-x="1005" d="M2 0h393v59l-86 11q-23 0 -22 22q0 6 6 23l2 4q41 80 162 266q6 8 18 27h4l183 -285q14 -20 14 -35q0 -23 -29 -22l-86 -11v-59h481v59q-74 4 -107.5 18.5t-70.5 65.5q-158 225 -280 422q88 133 227 301q39 49 70.5 62.5t107.5 15.5v60h-381v-60l80 -8q25 0 25 -21 q0 -10 -11 -26q-57 -94 -163 -258h-2l-172 256q-10 16 -11 26q0 25 29 25l61 6v60h-428v-60q66 -4 91.5 -15t60.5 -61q74 -102 221 -321q14 -20 41 -62l-2 -4q-158 -227 -238 -334q-37 -51 -75.5 -66t-112.5 -22v-59z" />
<glyph unicode="y" horiz-adv-x="1046" d="M-10 944q74 -2 101.5 -20.5t53.5 -85.5q33 -80 83.5 -204t96.5 -243t85 -220t57 -157q16 -47 16 -100q0 -70 -49 -174q-20 -45 -44.5 -65.5t-45.5 -20.5q-16 0 -33.5 9t-42.5 34q-33 29 -61 29q-31 0 -60.5 -36t-29.5 -79q0 -39 41 -73t102 -34q37 0 71 10.5t69.5 43 t74.5 99.5t76 175q43 125 99.5 280.5t113.5 306t101 262.5t65 159q29 63 53 81.5t98 22.5v60h-393v-60l107 -10q33 0 32 -37q0 -20 -4 -33q-10 -43 -35.5 -122.5t-56.5 -170t-65.5 -189.5t-69.5 -196h-4q-139 365 -252 686q-2 6 -2 11q-6 16 -6 24q0 29 39 29l88 8v60h-469 v-60z" />
<glyph unicode="z" horiz-adv-x="993" d="M39 31l16 -31h871l20 313h-63q-12 -74 -34 -120t-58.5 -72.5t-93 -37.5t-144.5 -11h-264q248 360 639 903l-17 29h-786v-304h63q10 74 26.5 118t46.5 68.5t81 35t137 10.5h205q-279 -397 -645 -901z" />
<glyph unicode="{" horiz-adv-x="696" d="M162 547q98 0 139 -43t41 -127q0 -41 -4 -64l-21 -192q-6 -51 -6 -109q0 -57 10.5 -105t38 -87t75.5 -60.5t122 -21.5h53v55q-96 4 -132 50t-36 130q0 51 4 78l17 158l2 12q10 92 10 137q0 84 -42 137.5t-157 75.5v13q115 23 157 76t42 137q0 47 -12 149l-17 158 q0 14 -2 41q-2 25 -2 37q0 84 36 130t132 50v55h-53q-74 0 -122 -21.5t-75.5 -60.5t-38 -87t-10.5 -105q0 -74 6 -109l21 -192q0 -4 2 -25v-24q0 -88 -41 -136.5t-137 -48.5v-61z" />
<glyph unicode="|" horiz-adv-x="466" d="M164 -31h139v1479h-139v-1479z" />
<glyph unicode="}" horiz-adv-x="696" d="M86 -207v-55h53q74 0 122 21.5t76 60.5t38 87t10 105q0 74 -6 109l-21 192q0 10 -2 31q-2 20 -2 29q0 88 41.5 131t139.5 43v61q-96 0 -138.5 44t-42.5 130q0 39 4 60l21 192q6 53 6 109q0 57 -10 105t-38 87t-76 60.5t-122 21.5h-53v-55q96 -4 132 -50t36 -130 q0 -51 -4 -78l-17 -158q-2 -18 -4 -53q-8 -68 -8 -96q0 -84 42 -137.5t157 -75.5v-13q-115 -23 -157 -76t-42 -137q0 -31 6 -92q4 -37 6 -57l17 -158q0 -14 2 -41q2 -25 2 -37q0 -84 -36 -130t-132 -50z" />
<glyph unicode="~" horiz-adv-x="1167" d="M150 410l83 -52q35 68 70 97.5t90 29.5q37 0 80 -12t105 -35l6 -2q66 -23 107.5 -34t80.5 -11q84 0 141.5 53.5t104.5 153.5l-82 51q-47 -70 -77 -93.5t-81 -23.5q-41 0 -145 37q-16 6 -27 11q-59 23 -104 35t-86 12q-100 0 -158.5 -58.5t-107.5 -158.5z" />
<glyph unicode="&#xa1;" horiz-adv-x="495" d="M119 899q0 -59 35.5 -96t93.5 -37q57 0 93 38t36 95t-36 93t-93 36q-59 0 -94 -36t-35 -93zM131 -348q0 -51 24.5 -73.5t92.5 -22.5q66 0 90 22.5t24 73.5v18q-2 13 -2 23l-81 882h-60l-86 -882v-23q-2 -16 -2 -18z" />
<glyph unicode="&#xa2;" d="M76 709q0 -260 117.5 -395.5t341.5 -135.5v-198h81v198q125 2 227.5 67.5t153.5 194.5l-53 33q-63 -109 -140 -150.5t-188 -41.5v874q53 -4 103.5 -39t95.5 -139q23 -49 62 -49q41 0 73.5 26.5t32.5 69.5q0 29 -18.5 62.5t-60.5 65.5t-113.5 53.5t-174.5 21.5v155h-81 v-155q-96 -6 -179.5 -37t-146 -93.5t-98 -159.5t-35.5 -228zM276 729q0 139 28 226t69 129t80 54.5t82 16.5v-868q-137 29 -198 144.5t-61 297.5z" />
<glyph unicode="&#xa3;" d="M55 10l8 -10h879l102 256l-55 18q-4 -6 -14 -20q-33 -51 -61.5 -74.5t-79.5 -23.5h-461v8q119 66 172 140.5t53 172.5q-6 63 -12 88l-8 31h278v78h-311l-13 22q-82 137 -120.5 227.5t-38.5 182.5q0 94 53 154.5t141 60.5q74 0 129.5 -52t83.5 -147q6 -20 18.5 -28.5 t41.5 -8.5q31 0 60.5 24t29.5 62q0 86 -92.5 154t-245.5 68q-170 0 -282.5 -102.5t-112.5 -270.5q0 -84 32.5 -164t87.5 -182h-208v-78h243q41 -68 55.5 -117t14.5 -100q0 -55 -28.5 -100.5t-75 -79t-101.5 -59t-125 -48.5z" />
<glyph unicode="&#xa4;" horiz-adv-x="1263" d="M6 516h158q31 -240 155 -381q78 -88 201 -129t277 -41q100 0 208.5 27.5t174.5 68.5l24 332h-51q-41 -172 -124 -265t-243 -93q-102 0 -178 41t-126 110.5t-77.5 153.5t-42.5 176h512l39 113h-561v24q-2 20 -2 25q0 43 2 65h522l39 113h-551q14 98 46 184t84.5 150.5 t127 101.5t171.5 37q141 0 226 -74.5t107 -242.5h54v309q-63 33 -161.5 55.5t-209.5 22.5q-162 0 -289 -52.5t-205 -152.5q-111 -143 -145 -338h-123l-39 -113h150q-2 -23 -2 -71v-43h-109z" />
<glyph unicode="&#xa5;" d="M-4 1309l53 -6q29 -4 49.5 -20.5t38.5 -57.5l248 -512h-299v-78h328q20 -39 20 -115v-59h-348v-78h348v-205q0 -43 -4 -62.5t-22.5 -30.5t-53.5 -16.5t-114 -9.5v-59h575v59q-76 4 -112.5 9.5t-54 16.5t-22.5 30.5t-5 62.5v205h348v78h-348v61q0 86 12 113h336v78h-307 q78 174 145 310t96 183q31 51 52.5 69.5t62.5 24.5l57 9v59h-403v-59l112 -13q31 0 31 -26q0 -12 -10 -39q-33 -82 -127 -291q-66 -143 -103 -227l-251 536q-6 12 -7 25q0 27 31 26l96 9v59h-448v-59z" />
<glyph unicode="&#xa6;" horiz-adv-x="466" d="M164 -31h139v658h-139v-658zM164 881h139v567h-139v-567z" />
<glyph unicode="&#xa7;" horiz-adv-x="1134" d="M94 778q0 -131 75 -234.5t273 -203.5q96 -49 159 -93t95.5 -83t44 -75t11.5 -75q0 -76 -48.5 -125t-113.5 -49q-66 0 -118 31t-103 117q-23 39 -56 39q-41 0 -68.5 -27t-27.5 -68q2 -66 95.5 -117t219.5 -51q166 0 264.5 98.5t98.5 241.5q143 184 143 379 q0 156 -86 260.5t-274 202.5q-94 49 -149.5 91t-81 75t-31.5 56.5t-6 52.5q0 61 45 108t116 47q51 0 95.5 -27.5t87.5 -101.5q20 -33 55 -33q33 0 60.5 21.5t27.5 60.5q0 63 -83 107.5t-193 44.5q-90 0 -157 -27.5t-108 -72.5t-60.5 -95.5t-23.5 -101.5q-84 -80 -131 -176 t-47 -197zM201 854q0 61 26.5 117.5t69.5 87.5q29 -80 101.5 -135.5t213.5 -135.5q23 -12 33 -18q129 -74 209 -175t80 -210q0 -63 -18.5 -111.5t-49.5 -70.5q-37 78 -120.5 145.5t-237.5 147.5q-307 162 -307 358z" />
<glyph unicode="&#xa8;" horiz-adv-x="819" d="M74 1284q0 -47 32.5 -82t90.5 -35q57 0 89.5 35t32.5 82t-32.5 81t-89.5 34t-90 -34t-33 -81zM500 1284q0 -47 32.5 -82t90.5 -35q57 0 89.5 35t32.5 82t-31.5 81t-90.5 34q-57 0 -90 -34t-33 -81z" />
<glyph unicode="&#xa9;" horiz-adv-x="1675" d="M92 709q0 -152 57.5 -286t161 -236.5t239.5 -160t288 -57.5t288 57.5t239 160t160.5 236.5t57.5 286t-57.5 286.5t-160.5 236t-239.5 159t-287.5 57.5q-152 0 -288 -57.5t-239.5 -159t-161 -236.5t-57.5 -286zM223 709q0 133 47 251.5t131 207.5t197 138.5t240 49.5 t239.5 -49.5t196.5 -138.5t131 -207.5t47 -251.5t-47 -252t-131 -208t-196.5 -138.5t-239.5 -49.5t-240 49.5t-197 138.5t-131 207.5t-47 252.5zM449 713q0 -186 101 -297t316 -111q195 0 281 64l22 204h-41q-29 -111 -86 -161t-155 -50q-76 0 -129 32t-85 85t-45.5 118 t-13.5 134q0 145 64.5 241.5t198.5 96.5q117 0 167 -54t68 -153h41v201q-47 31 -122 47t-150 16q-209 0 -320.5 -111.5t-111.5 -301.5z" />
<glyph unicode="&#xaa;" horiz-adv-x="798" d="M82 727q0 -78 52 -131t149 -53q49 0 90 18.5t88 48.5q10 7 20 13q12 -39 34 -58.5t60 -19.5q41 0 89 10q37 8 81 27l-6 36h-14q-14 -2 -23 -2q-8 0 -16 2h-12q-23 6 -37 31t-14 80v315q0 33 -7.5 61t-30 51.5t-69.5 37.5t-123 14q-115 0 -199.5 -46t-84.5 -103 q0 -27 30.5 -46.5t59.5 -19.5q20 0 35.5 15.5t21.5 38.5q20 57 55 80.5t72 23.5q41 0 69.5 -26.5t28.5 -82.5v-77q-68 -23 -67 -23q-111 -37 -170 -57q-94 -33 -128 -69t-34 -89zM244 741q0 86 108 125q76 29 129 43v-159q0 -68 -35.5 -100t-80.5 -36q-59 2 -90 37t-31 90z " />
<glyph unicode="&#xab;" horiz-adv-x="905" d="M84 489q0 -16 10 -32l307 -373l41 33l-161 336q-8 16 -9 36q0 23 9 33l161 334l-41 35l-307 -371q-10 -14 -10 -31zM463 489q0 -16 10 -32l307 -373l41 33l-162 336q-8 16 -8 36q0 23 8 33l162 334l-41 35l-307 -371q-10 -14 -10 -31z" />
<glyph unicode="&#xac;" horiz-adv-x="1167" d="M88 678h852v-469h139v588h-991v-119z" />
<glyph unicode="&#xad;" horiz-adv-x="1167" d="M88 453h991v118h-991v-118z" />
<glyph unicode="&#xae;" horiz-adv-x="1675" d="M92 709q0 -152 57.5 -286t161 -236.5t239.5 -160t288 -57.5t288 57.5t239 160t160.5 236.5t57.5 286t-57.5 286.5t-160.5 236t-239.5 159t-287.5 57.5q-152 0 -288 -57.5t-239.5 -159t-161 -236.5t-57.5 -286zM223 709q0 133 47 251.5t131 207.5t197 138.5t240 49.5 t239.5 -49.5t196.5 -138.5t131 -207.5t47 -251.5t-47 -252t-131 -208t-196.5 -138.5t-239.5 -49.5t-240 49.5t-197 138.5t-131 207.5t-47 252.5zM500 326h344v41l-62 8q-45 4 -45 57v252h70q94 0 123 -61q8 -18 22 -84q16 -82 31 -125q16 -45 51 -66.5t99 -21.5h90v30 q-51 14 -72 35q-41 49 -55 127q-14 84 -45 130t-115 67v4q90 14 144.5 63t54.5 131q0 90 -62.5 141.5t-204.5 51.5h-368v-41l63 -8q25 -2 33 -16.5t8 -45.5v-563q0 -53 -41 -57l-63 -8v-41zM737 741v265q0 25 16.5 34t75.5 9q70 0 116 -33t46 -119q0 -80 -47 -118t-129 -38 h-78z" />
<glyph unicode="&#xaf;" horiz-adv-x="819" d="M115 1223h590v120h-590v-120z" />
<glyph unicode="&#xb0;" horiz-adv-x="716" d="M76 1110q2 -117 84 -200t198 -83q115 0 199 83t84 200q0 57 -22.5 108.5t-61.5 90.5t-90 61.5t-109 22.5q-117 0 -199.5 -84t-82.5 -199zM190 1110q0 78 49.5 131t116.5 53q70 0 120 -53t50 -131t-50 -131t-118 -53t-116.5 52t-51.5 132z" />
<glyph unicode="&#xb1;" horiz-adv-x="1167" d="M88 0h991v119h-991v-119zM88 637h428v-404h139v404h424v119h-424v383h-139v-383h-428v-119z" />
<glyph unicode="&#xb2;" horiz-adv-x="778" d="M66 578l18 -21h573l56 182l-47 11q-20 -41 -44 -56.5t-71 -15.5h-332q16 45 59.5 94t127.5 94q147 82 209.5 146.5t62.5 156.5q0 111 -75 167.5t-208 56.5q-135 0 -214 -60.5t-79 -136.5q0 -31 29 -52.5t64 -21.5q45 0 53 49q18 86 54 125t87 39q55 0 84 -40t29 -103 q0 -74 -35 -145.5t-129 -135.5q-131 -90 -195.5 -173t-76.5 -160z" />
<glyph unicode="&#xb3;" horiz-adv-x="778" d="M74 698q0 -63 81 -109t203 -46q162 0 249 61.5t87 177.5q0 57 -22.5 98.5t-57 66t-70.5 36.5t-67 14v4q27 6 58.5 18.5t59.5 35t45 55.5t17 80q0 55 -23.5 95t-63.5 63.5t-88 34t-99 10.5q-121 0 -197.5 -53.5t-76.5 -118.5q0 -33 26.5 -54.5t57.5 -21.5q37 0 47 37 q20 76 51 114.5t82 38.5q35 0 58.5 -15t36.5 -40t17 -50.5t4 -47.5q0 -63 -27.5 -109.5t-84.5 -46.5q-41 0 -90 10q-20 4 -27 4q-20 0 -27.5 -13t-7.5 -36q0 -20 8.5 -33.5t26.5 -13.5q6 0 27 4q49 10 90 10q18 0 40.5 -6t46 -24.5t39 -53t15.5 -88.5q0 -98 -40 -142 t-103 -44q-53 0 -95 37t-67 111q-12 41 -47 40q-33 0 -62.5 -27.5t-29.5 -62.5z" />
<glyph unicode="&#xb4;" horiz-adv-x="819" d="M264 1151l31 -41l309 172q57 33 86 57.5t29 53.5q0 31 -27.5 59.5t-52.5 28.5q-27 0 -56.5 -18.5t-74.5 -65.5z" />
<glyph unicode="&#xb5;" horiz-adv-x="1241" d="M53 926l78 -11q41 -4 53.5 -20t12.5 -72v-1231q0 -55 19.5 -75.5t53.5 -20.5q47 0 97.5 38t50.5 87q-2 20 -15.5 51t-37.5 80q-25 49 -42.5 108.5t-17.5 114.5v68h4q41 -35 88 -51.5t123 -16.5t142.5 31t144.5 82q41 29 55 35l21 -123h327v59q-57 4 -85.5 9.5t-44 16.5 t-19.5 31.5t-4 61.5v838l-15 12l-321 -51v-51l78 -11q41 -4 53 -20t12 -72v-461q0 -90 -16 -122q-35 -72 -103.5 -113t-148.5 -41q-94 0 -150.5 59.5t-56.5 173.5v697l-14 12l-322 -51v-51z" />
<glyph unicode="&#xb6;" horiz-adv-x="1136" d="M131 954q0 -94 32 -175t90 -141t137 -93t173 -33h33v905h-25q-201 0 -320.5 -130t-119.5 -333zM537 -154v-53h352v1477q0 43 12 57t43 19l139 18v53h-340v-1470q0 -43 -12 -61.5t-43 -20.5z" />
<glyph unicode="&#xb8;" horiz-adv-x="819" d="M334 -412v-53q43 -6 90 -6q31 0 72 7t81.5 25.5t68.5 55.5t28 92q0 88 -54.5 128t-127.5 50l65 113h-84l-94 -172l8 -14q18 0 38.5 -4.5t41 -15.5t34 -33.5t13.5 -57.5q0 -59 -49 -87t-131 -28z" />
<glyph unicode="&#xb9;" horiz-adv-x="778" d="M166 557h463v45l-111 10q-45 4 -45 54v718l-14 9l-293 -43v-39l125 -17q31 -2 31 -49v-579q0 -49 -43 -54l-113 -10v-45z" />
<glyph unicode="&#xba;" horiz-adv-x="815" d="M72 874q0 -160 84 -245.5t250 -85.5q168 0 252.5 85.5t84.5 245.5q0 162 -85 248t-252 86q-166 0 -250 -87t-84 -247zM242 874q0 131 40 204t124 73q86 0 126.5 -72t40.5 -205q0 -131 -40.5 -202.5t-126.5 -71.5q-84 0 -124 71.5t-40 202.5z" />
<glyph unicode="&#xbb;" horiz-adv-x="905" d="M84 117l41 -33l307 373q10 12 10 32q0 23 -10 31l-307 371l-41 -35l162 -334q10 -16 10 -33q0 -16 -10 -36zM463 117l41 -33l307 373q10 12 10 32q0 23 -10 31l-307 371l-41 -35l162 -334q10 -16 10 -33q0 -16 -10 -36z" />
<glyph unicode="&#xbc;" horiz-adv-x="1761" d="M133 557h463v45l-111 10q-45 4 -45 54v718l-14 9l-293 -43v-39l125 -17q31 -2 31 -49v-579q0 -49 -43 -54l-113 -10v-45zM408 0l73 -55l881 1429l-78 49zM979 244l22 -35h345v-100q0 -49 -43 -54l-93 -10v-45h402v45l-70 10q-23 4 -34 15.5t-11 38.5v100h131v67h-131v545 h-125q-33 -39 -83 -108.5t-102 -147.5t-107.5 -163t-100.5 -158zM1090 276q53 94 120.5 202t130.5 204h5v-406h-256z" />
<glyph unicode="&#xbd;" horiz-adv-x="1761" d="M119 557h463v45l-111 10q-45 4 -45 54v718l-14 9l-293 -43v-39l125 -17q31 -2 30 -49v-579q0 -49 -43 -54l-112 -10v-45zM352 0l74 -55l881 1429l-78 49zM1006 20l18 -20h573l56 182l-47 11q-20 -41 -44 -56.5t-71 -15.5h-332q16 45 59.5 94t127.5 94q147 82 209.5 146.5 t62.5 156.5q0 111 -75 167.5t-208 56.5q-135 0 -214 -60.5t-79 -136.5q0 -31 29 -52.5t64 -21.5q45 0 53 49q18 86 54 125t87 39q55 0 84 -40t29 -103q0 -74 -35 -145.5t-129 -135.5q-131 -90 -195.5 -173t-76.5 -161z" />
<glyph unicode="&#xbe;" horiz-adv-x="1761" d="M102 698q0 -63 81 -109t204 -46q162 0 249 61.5t87 177.5q0 57 -22.5 98.5t-57.5 66t-70.5 36.5t-66.5 14v4q27 6 58.5 18.5t59 35t45 55.5t17.5 80q0 55 -23.5 95t-63.5 63.5t-88 34t-99 10.5q-121 0 -198 -53.5t-77 -118.5q0 -33 26.5 -54.5t57.5 -21.5q37 0 47 37 q20 76 51 114.5t82 38.5q35 0 58.5 -15t37 -40t17.5 -50.5t4 -47.5q0 -63 -27.5 -109.5t-84.5 -46.5q-41 0 -91 10q-20 4 -26 4q-20 0 -27.5 -13t-7.5 -36q0 -20 8 -33.5t27 -13.5q6 0 26 4q49 10 91 10q18 0 40.5 -6t46 -24.5t39 -53t15.5 -88.5q0 -98 -40 -142t-104 -44 q-53 0 -95 37t-66 111q-12 41 -47 40q-33 0 -63 -27.5t-30 -62.5zM465 0l74 -55l880 1429l-78 49zM1006 244l22 -35h344v-100q0 -49 -43 -54l-92 -10v-45h401v45l-69 10q-23 4 -34 15.5t-11 38.5v100h131v67h-131v545h-125q-33 -39 -83 -108.5t-102.5 -147.5t-107.5 -163 t-100 -158zM1116 276q53 94 121 202t131 204h4v-406h-256z" />
<glyph unicode="&#xbf;" horiz-adv-x="796" d="M61 -166q0 -137 89.5 -207.5t234.5 -70.5q94 0 162.5 25.5t110.5 64.5t60.5 78.5t18.5 68.5q0 51 -36.5 77t-71.5 26q-25 0 -43.5 -12.5t-22.5 -37.5q-20 -113 -62 -166t-106 -53q-68 0 -99.5 56.5t-31.5 150.5q0 90 53 178.5t129 145.5q94 72 130 122t36 117 q0 92 -65.5 145.5t-153.5 53.5q-53 0 -105 -13.5t-91 -43.5l16 -41q29 8 61 8q45 0 92.5 -38t47.5 -112q0 -127 -156 -235l-18 -12q-80 -55 -129.5 -116t-49.5 -159zM281 901q0 -55 35.5 -92t91.5 -37q57 0 92 36t35 93q-2 57 -36 92t-91 35t-92 -36t-35 -91z" />
<glyph unicode="&#xc0;" horiz-adv-x="1300" d="M-59 0h450v59l-106 11q-59 6 -60 41q0 10 6 34q2 4 2 7q29 98 95 303q20 57 30 92h459l137 -391q10 -31 11 -43q0 -39 -66 -45l-92 -9v-59h524v59q-49 4 -75.5 9.5t-44 16.5t-31 33.5t-27.5 63.5l-434 1235h-152l-215 -606l-35 -100q-66 -184 -105.5 -295t-80.5 -215 q-33 -86 -65.5 -112t-124.5 -30v-59zM342 1716q2 -29 26.5 -43t98.5 -39l348 -114l23 45l-297 202q-49 33 -74 45.5t-45 12.5h-6q-4 -2 -8 -2q-23 -4 -44.5 -38t-21.5 -69zM385 625q49 152 141 422q41 113 58 163h6l203 -585h-408z" />
<glyph unicode="&#xc1;" horiz-adv-x="1300" d="M-59 0h450v59l-106 11q-59 6 -60 41q0 10 6 34q2 4 2 7q29 98 95 303q20 57 30 92h459l137 -391q10 -31 11 -43q0 -39 -66 -45l-92 -9v-59h524v59q-49 4 -75.5 9.5t-44 16.5t-31 33.5t-27.5 63.5l-434 1235h-152l-215 -606l-35 -100q-66 -184 -105.5 -295t-80.5 -215 q-33 -86 -65.5 -112t-124.5 -30v-59zM385 625q49 152 141 422q41 113 58 163h6l203 -585h-408zM440 1565l23 -45l348 114q74 25 98.5 39t26.5 43q0 35 -21.5 69t-44.5 38h-6q-4 2 -8 2q-18 0 -45 -12.5t-74 -45.5z" />
<glyph unicode="&#xc2;" horiz-adv-x="1300" d="M-59 0h450v59l-106 11q-59 6 -60 41q0 10 6 34q2 4 2 7q29 98 95 303q20 57 30 92h459l137 -391q10 -31 11 -43q0 -39 -66 -45l-92 -9v-59h524v59q-49 4 -75.5 9.5t-44 16.5t-31 33.5t-27.5 63.5l-434 1235h-152l-215 -606l-35 -100q-66 -184 -105.5 -295t-80.5 -215 q-33 -86 -65.5 -112t-124.5 -30v-59zM338 1511l27 -43l219 125l8 4q45 25 59 25q16 0 56 -23l12 -6l219 -125l27 43l-238 234l-6 6q-47 43 -70 43t-69 -45l-7 -4zM385 625q49 152 141 422q41 113 58 163h6l203 -585h-408z" />
<glyph unicode="&#xc3;" horiz-adv-x="1300" d="M-59 0h450v59l-106 11q-59 6 -60 41q0 10 6 34q2 4 2 7q29 98 95 303q20 57 30 92h459l137 -391q10 -31 11 -43q0 -39 -66 -45l-92 -9v-59h524v59q-49 4 -75.5 9.5t-44 16.5t-31 33.5t-27.5 63.5l-434 1235h-152l-215 -606l-35 -100q-66 -184 -105.5 -295t-80.5 -215 q-33 -86 -65.5 -112t-124.5 -30v-59zM289 1507l39 -26q35 57 66.5 80.5t80.5 23.5q31 0 71 -10t93 -29l20 -6q102 -33 144 -33q70 0 123 54q39 39 90 141l-41 22q-45 -57 -71.5 -75.5t-67.5 -18.5q-29 0 -66 10.5t-90 28.5l-12 4q-53 18 -86 26.5t-64 8.5q-84 0 -133 -53 t-94 -144zM385 625q49 152 141 422q41 113 58 163h6l203 -585h-408z" />
<glyph unicode="&#xc4;" horiz-adv-x="1300" d="M-59 0h450v59l-106 11q-59 6 -60 41q0 10 6 34q2 4 2 7q29 98 95 303q20 57 30 92h459l137 -391q10 -31 11 -43q0 -39 -66 -45l-92 -9v-59h524v59q-49 4 -75.5 9.5t-44 16.5t-31 33.5t-27.5 63.5l-434 1235h-152l-215 -606l-35 -100q-66 -184 -105.5 -295t-80.5 -215 q-33 -86 -65.5 -112t-124.5 -30v-59zM315 1612q0 -47 33 -82t90 -35t90 35t33 82t-32.5 80.5t-90.5 33.5q-57 0 -90 -33.5t-33 -80.5zM385 625q49 152 141 422q41 113 58 163h6l203 -585h-408zM741 1612q0 -47 33 -82t90 -35t90 35t33 82t-31.5 80.5t-91.5 33.5 q-57 0 -90 -33.5t-33 -80.5z" />
<glyph unicode="&#xc5;" horiz-adv-x="1300" d="M-59 0h450v59l-106 11q-59 6 -60 41q0 10 6 34q2 4 2 7q29 98 95 303q20 57 30 92h459l137 -391q10 -31 11 -43q0 -39 -66 -45l-92 -9v-59h524v59q-49 4 -75.5 9.5t-44 16.5t-31 33.5t-27.5 63.5l-418 1182q59 18 95 66.5t36 125.5q0 106 -63.5 156.5t-157.5 50.5 t-157.5 -50t-63.5 -157q0 -78 35 -125t92 -65l-199 -555l-35 -100q-66 -184 -105.5 -295t-80.5 -215q-33 -86 -65.5 -112t-124.5 -30v-59zM385 625q49 152 141 422q41 113 58 163h6l203 -585h-408zM543 1556q0 76 27.5 108t74.5 32t75 -32t28 -108t-28 -107.5t-75 -31.5 t-74.5 32t-27.5 107z" />
<glyph unicode="&#xc6;" horiz-adv-x="1794" d="M-129 0h473v59l-135 15q-37 0 -37 30q0 16 6 27q16 43 83 178t200 389h352v-503q0 -49 -4 -72t-21.5 -35t-51.5 -17t-107 -12v-59h1081l25 354h-62q-16 -94 -46 -150.5t-74 -84t-108.5 -37.5t-168.5 -10q-82 0 -130 6t-79 20t-43 51t-12 107v442h286q66 0 103 -9 t55.5 -29.5t26.5 -50t16 -89.5h62v432h-62q-8 -55 -16 -85.5t-25 -49.5q-39 -41 -160 -41h-286v496q0 47 13 60.5t62 13.5h201q90 0 144.5 -11.5t87 -40t49 -78t28.5 -135.5h62v336h-1170v-59l154 -12q39 0 39 -27q0 -16 -14 -43l-252 -461q-63 -117 -154 -287 q-80 -147 -119 -217.5t-86 -152.5q-35 -57 -67.5 -73.5t-118.5 -25.5v-59zM500 776q18 35 100 187q94 174 122 226t79 146h12v-559h-313z" />
<glyph unicode="&#xc7;" horiz-adv-x="1400" d="M98 698q0 -176 50.5 -318t144.5 -237q82 -82 201.5 -122.5t271.5 -47.5l-80 -145l8 -14q18 0 39 -4.5t41.5 -15.5t33.5 -33.5t13 -57.5q0 -59 -49 -87t-131 -28v-53q43 -6 90 -6q31 0 72 7t82 25.5t68.5 55.5t27.5 92q0 88 -54.5 128t-127.5 50l47 82q125 0 252 29 t202 70l29 342h-61q-23 -86 -55.5 -151.5t-83 -115t-122 -76t-169.5 -26.5q-150 0 -251.5 64.5t-157.5 166t-78.5 214t-22.5 219.5q0 133 27.5 251.5t89 214t161 150.5t236.5 55q164 0 264 -76.5t129 -250.5h61v319q-76 35 -189.5 57.5t-244.5 22.5q-188 0 -336.5 -54.5 t-240.5 -156.5q-90 -102 -138.5 -235.5t-48.5 -303.5z" />
<glyph unicode="&#xc8;" horiz-adv-x="1241" d="M72 0h1085l25 354h-62q-16 -94 -44.5 -149t-73 -84t-110 -39t-169.5 -10q-160 0 -213 20q-31 14 -41 45t-10 109v452h286q66 0 103 -9t55.5 -29.5t26.5 -50t16 -89.5h62v432h-62q-8 -55 -16 -85.5t-25 -49.5q-39 -41 -160 -41h-286v496q0 49 13 61.5t63 12.5h200 q90 0 144.5 -11.5t87 -40t49 -78t28.5 -135.5h62v336h-1034v-59q78 -6 110.5 -10.5t49 -16.5t20.5 -33.5t4 -70.5v-1037q0 -49 -4 -70.5t-20.5 -33.5t-49 -16t-110.5 -11v-59zM301 1716q2 -29 26.5 -43t98.5 -39l348 -114l23 45l-297 202q-49 33 -74 45.5t-45 12.5h-6 q-4 -2 -8 -2q-23 -4 -44.5 -38t-21.5 -69z" />
<glyph unicode="&#xc9;" horiz-adv-x="1241" d="M72 0h1085l25 354h-62q-16 -94 -44.5 -149t-73 -84t-110 -39t-169.5 -10q-160 0 -213 20q-31 14 -41 45t-10 109v452h286q66 0 103 -9t55.5 -29.5t26.5 -50t16 -89.5h62v432h-62q-8 -55 -16 -85.5t-25 -49.5q-39 -41 -160 -41h-286v496q0 49 13 61.5t63 12.5h200 q90 0 144.5 -11.5t87 -40t49 -78t28.5 -135.5h62v336h-1034v-59q78 -6 110.5 -10.5t49 -16.5t20.5 -33.5t4 -70.5v-1037q0 -49 -4 -70.5t-20.5 -33.5t-49 -16t-110.5 -11v-59zM475 1565l23 -45l348 114q74 25 98.5 39t26.5 43q0 35 -21.5 69t-44.5 38h-6q-4 2 -8 2 q-18 0 -45 -12.5t-74 -45.5z" />
<glyph unicode="&#xca;" horiz-adv-x="1241" d="M72 0h1085l25 354h-62q-16 -94 -44.5 -149t-73 -84t-110 -39t-169.5 -10q-160 0 -213 20q-31 14 -41 45t-10 109v452h286q66 0 103 -9t55.5 -29.5t26.5 -50t16 -89.5h62v432h-62q-8 -55 -16 -85.5t-25 -49.5q-39 -41 -160 -41h-286v496q0 49 13 61.5t63 12.5h200 q90 0 144.5 -11.5t87 -40t49 -78t28.5 -135.5h62v336h-1034v-59q78 -6 110.5 -10.5t49 -16.5t20.5 -33.5t4 -70.5v-1037q0 -49 -4 -70.5t-20.5 -33.5t-49 -16t-110.5 -11v-59zM307 1511l27 -43l219 125l8 4q45 25 60 25q16 0 55 -23l12 -6l219 -125l27 43l-238 234l-6 6 q-47 43 -69 43q-23 0 -70 -45l-6 -4z" />
<glyph unicode="&#xcb;" horiz-adv-x="1241" d="M72 0h1085l25 354h-62q-16 -94 -44.5 -149t-73 -84t-110 -39t-169.5 -10q-160 0 -213 20q-31 14 -41 45t-10 109v452h286q66 0 103 -9t55.5 -29.5t26.5 -50t16 -89.5h62v432h-62q-8 -55 -16 -85.5t-25 -49.5q-39 -41 -160 -41h-286v496q0 49 13 61.5t63 12.5h200 q90 0 144.5 -11.5t87 -40t49 -78t28.5 -135.5h62v336h-1034v-59q78 -6 110.5 -10.5t49 -16.5t20.5 -33.5t4 -70.5v-1037q0 -49 -4 -70.5t-20.5 -33.5t-49 -16t-110.5 -11v-59zM287 1612q0 -47 32.5 -82t90.5 -35q57 0 89.5 35t32.5 82t-32.5 80.5t-89.5 33.5t-90 -33.5 t-33 -80.5zM713 1612q0 -47 32.5 -82t90.5 -35q57 0 89.5 35t32.5 82t-31.5 80.5t-90.5 33.5q-57 0 -90 -33.5t-33 -80.5z" />
<glyph unicode="&#xcc;" horiz-adv-x="714" d="M37 1716q2 -29 26.5 -43t98.5 -39l348 -114l22 45l-296 202q-49 33 -74 45.5t-45 12.5h-6q-4 -2 -9 -2q-23 -4 -44 -38t-21 -69zM72 0h571v59q-78 6 -109.5 10.5t-49 16.5t-21.5 33.5t-4 70.5v1037q0 49 4 70.5t21.5 33.5t50 16.5t108.5 10.5v59h-571v-59 q78 -6 110.5 -10.5t49 -16.5t20.5 -33.5t4 -70.5v-1037q0 -49 -4 -70.5t-20.5 -33.5t-49 -16t-110.5 -11v-59z" />
<glyph unicode="&#xcd;" horiz-adv-x="714" d="M72 0h571v59q-78 6 -109.5 10.5t-49 16.5t-21.5 33.5t-4 70.5v1037q0 49 4 70.5t21.5 33.5t50 16.5t108.5 10.5v59h-571v-59q78 -6 110.5 -10.5t49 -16.5t20.5 -33.5t4 -70.5v-1037q0 -49 -4 -70.5t-20.5 -33.5t-49 -16t-110.5 -11v-59zM182 1565l23 -45l348 114 q74 25 98.5 39t26.5 43q0 35 -21.5 69t-44.5 38h-6q-4 2 -8 2q-18 0 -45 -12.5t-74 -45.5z" />
<glyph unicode="&#xce;" horiz-adv-x="714" d="M45 1511l27 -43l219 125l8 4q45 25 59 25q16 0 56 -23l12 -6l219 -125l27 43l-238 234l-6 6q-47 43 -70 43t-69 -45l-6 -4zM72 0h571v59q-78 6 -109.5 10.5t-49 16.5t-21.5 33.5t-4 70.5v1037q0 49 4 70.5t21.5 33.5t50 16.5t108.5 10.5v59h-571v-59q78 -6 110.5 -10.5 t49 -16.5t20.5 -33.5t4 -70.5v-1037q0 -49 -4 -70.5t-20.5 -33.5t-49 -16t-110.5 -11v-59z" />
<glyph unicode="&#xcf;" horiz-adv-x="714" d="M23 1612q0 -47 32.5 -82t89.5 -35t90 35t33 82t-32.5 80.5t-90.5 33.5q-57 0 -89.5 -33.5t-32.5 -80.5zM72 0h571v59q-78 6 -109.5 10.5t-49 16.5t-21.5 33.5t-4 70.5v1037q0 49 4 70.5t21.5 33.5t50 16.5t108.5 10.5v59h-571v-59q78 -6 110.5 -10.5t49 -16.5t20.5 -33.5 t4 -70.5v-1037q0 -49 -4 -70.5t-20.5 -33.5t-49 -16t-110.5 -11v-59zM449 1612q0 -47 32.5 -82t89.5 -35t90 35t33 82t-31.5 80.5t-91.5 33.5q-57 0 -89.5 -33.5t-32.5 -80.5z" />
<glyph unicode="&#xd0;" horiz-adv-x="1607" d="M41 698h227v-508q0 -49 -4 -70.5t-20.5 -33.5t-49 -16t-110.5 -11v-59h639q154 0 284 29.5t236 101.5q123 84 194.5 234.5t71.5 367.5q0 158 -46 288t-138 218q-98 92 -236.5 135t-324.5 43h-680v-59q78 -6 110.5 -10.5t49 -16.5t20.5 -33.5t4 -70.5v-451h-227v-78z M471 256v442h283v78h-283v453q0 41 7 62.5t29.5 33.5t69 16.5t132.5 4.5q160 -2 271.5 -49.5t177 -130.5t94 -193.5t28.5 -247.5q0 -188 -43 -316t-123 -202t-186.5 -104.5t-243.5 -30.5q-72 0 -112 7t-61.5 25.5t-30.5 53.5t-9 98z" />
<glyph unicode="&#xd1;" horiz-adv-x="1597" d="M70 1358q78 -6 110.5 -10.5t49 -16.5t20.5 -33.5t4 -70.5v-811q0 -160 -14 -254q-8 -59 -43 -77.5t-125 -25.5v-59h485v59q-111 8 -148.5 25.5t-46.5 77.5q-14 94 -14 254v817h4q543 -762 873 -1233h135v1001q0 160 14 254q8 59 43 78t125 25v59h-485v-59 q111 -8 148.5 -24.5t45.5 -78.5q14 -94 15 -254v-718l-4 4q-401 565 -799 1130h-393v-59zM442 1507l39 -26q35 57 67 80.5t81 23.5q31 0 70.5 -10t93.5 -29l20 -6q102 -33 143 -33q70 0 123 54q39 39 90 141l-41 22q-4 -6 -17 -19t-33.5 -30.5t-44 -31t-44.5 -13.5 q-29 0 -65.5 10.5t-89.5 28.5l-13 4q-53 18 -86 26.5t-63 8.5q-84 0 -133.5 -53t-94.5 -144z" />
<glyph unicode="&#xd2;" horiz-adv-x="1560" d="M98 709q0 -170 45 -308.5t129 -232.5q176 -199 508 -199t508 199q84 92 129 230.5t45 310.5t-45 310t-129 230q-176 199 -508 199t-508 -199q-84 -94 -129 -231t-45 -309zM328 709q0 125 21.5 240.5t71.5 213t139 155.5t220 58t220.5 -58t140.5 -155.5t71.5 -213 t20.5 -240.5t-20.5 -240t-71.5 -213t-140.5 -156.5t-220.5 -58.5t-220 59.5t-139 155.5t-71.5 212t-21.5 241zM436 1716q2 -29 26.5 -43t98.5 -39l348 -114l23 45l-297 202q-49 33 -73.5 45.5t-45.5 12.5h-6q-4 -2 -8 -2q-23 -4 -44.5 -38t-21.5 -69z" />
<glyph unicode="&#xd3;" horiz-adv-x="1560" d="M98 709q0 -170 45 -308.5t129 -232.5q176 -199 508 -199t508 199q84 92 129 230.5t45 310.5t-45 310t-129 230q-176 199 -508 199t-508 -199q-84 -94 -129 -231t-45 -309zM328 709q0 125 21.5 240.5t71.5 213t139 155.5t220 58t220.5 -58t140.5 -155.5t71.5 -213 t20.5 -240.5t-20.5 -240t-71.5 -213t-140.5 -156.5t-220.5 -58.5t-220 59.5t-139 155.5t-71.5 212t-21.5 241zM578 1565l22 -45l348 114q74 25 98.5 39t26.5 43q0 35 -21.5 69t-43.5 38h-7q-4 2 -8 2q-18 0 -44.5 -12.5t-74.5 -45.5z" />
<glyph unicode="&#xd4;" horiz-adv-x="1560" d="M98 709q0 -170 45 -308.5t129 -232.5q176 -199 508 -199t508 199q84 92 129 230.5t45 310.5t-45 310t-129 230q-176 199 -508 199t-508 -199q-84 -94 -129 -231t-45 -309zM328 709q0 125 21.5 240.5t71.5 213t139 155.5t220 58t220.5 -58t140.5 -155.5t71.5 -213 t20.5 -240.5t-20.5 -240t-71.5 -213t-140.5 -156.5t-220.5 -58.5t-220 59.5t-139 155.5t-71.5 212t-21.5 241zM467 1511l27 -43l219 125l8 4q45 25 59 25q16 0 56 -23l12 -6l219 -125l27 43l-238 234l-6 6q-47 43 -70 43t-69 -45l-6 -4z" />
<glyph unicode="&#xd5;" horiz-adv-x="1560" d="M98 709q0 -170 45 -308.5t129 -232.5q176 -199 508 -199t508 199q84 92 129 230.5t45 310.5t-45 310t-129 230q-176 199 -508 199t-508 -199q-84 -94 -129 -231t-45 -309zM328 709q0 125 21.5 240.5t71.5 213t139 155.5t220 58t220.5 -58t140.5 -155.5t71.5 -213 t20.5 -240.5t-20.5 -240t-71.5 -213t-140.5 -156.5t-220.5 -58.5t-220 59.5t-139 155.5t-71.5 212t-21.5 241zM418 1507l39 -26q35 57 66.5 80.5t80.5 23.5q31 0 71 -10t93 -29l20 -6q102 -33 144 -33q70 0 123 54q39 39 90 141l-41 22q-45 -57 -71.5 -75.5t-67.5 -18.5 q-29 0 -66 10.5t-90 28.5l-12 4q-53 18 -86 26.5t-64 8.5q-84 0 -133 -53t-94 -144z" />
<glyph unicode="&#xd6;" horiz-adv-x="1560" d="M98 709q0 -170 45 -308.5t129 -232.5q176 -199 508 -199t508 199q84 92 129 230.5t45 310.5t-45 310t-129 230q-176 199 -508 199t-508 -199q-84 -94 -129 -231t-45 -309zM328 709q0 125 21.5 240.5t71.5 213t139 155.5t220 58t220.5 -58t140.5 -155.5t71.5 -213 t20.5 -240.5t-20.5 -240t-71.5 -213t-140.5 -156.5t-220.5 -58.5t-220 59.5t-139 155.5t-71.5 212t-21.5 241zM444 1612q0 -47 33 -82t90 -35t90 35t33 82t-32.5 80.5t-90.5 33.5q-57 0 -90 -33.5t-33 -80.5zM870 1612q0 -47 33 -82t90 -35t90 35t33 82t-31.5 80.5 t-91.5 33.5q-57 0 -90 -33.5t-33 -80.5z" />
<glyph unicode="&#xd7;" horiz-adv-x="1167" d="M129 135l84 -90l371 377l368 -377l86 90l-366 377l366 373l-86 94l-368 -377l-371 377l-84 -94l367 -373z" />
<glyph unicode="&#xd8;" horiz-adv-x="1560" d="M98 709q0 -170 45 -308.5t129 -232.5q41 -45 72 -68l-100 -159l65 -50l105 166q150 -88 366 -88q332 0 508 199q84 92 129 230.5t45 310.5t-45 310t-129 230q-41 45 -76 70l97 151l-70 43l-94 -151q-147 86 -365 86q-332 0 -508 -199q-84 -94 -129 -231t-45 -309z M328 709q0 125 21.5 240.5t71.5 213t140 155.5t219 58q96 0 169 -32t126 -91l-643 -1013q-55 94 -79.5 216t-24.5 253zM483 168l643 1014q55 -92 81 -216t26 -257q0 -125 -21.5 -241t-71.5 -213t-139.5 -155.5t-220.5 -58.5q-96 0 -169.5 34t-127.5 93z" />
<glyph unicode="&#xd9;" horiz-adv-x="1619" d="M59 1358q78 -6 111 -10.5t49.5 -16.5t20.5 -33.5t4 -70.5v-709q0 -88 15 -166t40 -133q35 -72 90 -122t122 -77.5t141.5 -39t156.5 -11.5t157.5 11.5t143.5 39t123 76.5t88 123q27 55 41 133t14 170v705q0 49 4 70.5t21.5 33.5t50.5 16.5t109 10.5v59h-572v-59 q78 -6 111 -10.5t49 -16.5t20.5 -33.5t4.5 -70.5v-664q0 -143 -23 -239.5t-70 -159.5q-94 -123 -272 -123q-174 0 -270 123q-47 63 -70 159.5t-23 239.5v664q0 49 4.5 70.5t21.5 33.5t50 16.5t109 10.5v59h-572v-59zM440 1716q2 -29 27 -43t98 -39l348 -114l23 45l-297 202 q-49 33 -73.5 45.5t-45.5 12.5h-6q-4 -2 -8 -2q-23 -4 -44.5 -38t-21.5 -69z" />
<glyph unicode="&#xda;" horiz-adv-x="1619" d="M59 1358q78 -6 111 -10.5t49.5 -16.5t20.5 -33.5t4 -70.5v-709q0 -88 15 -166t40 -133q35 -72 90 -122t122 -77.5t141.5 -39t156.5 -11.5t157.5 11.5t143.5 39t123 76.5t88 123q27 55 41 133t14 170v705q0 49 4 70.5t21.5 33.5t50.5 16.5t109 10.5v59h-572v-59 q78 -6 111 -10.5t49 -16.5t20.5 -33.5t4.5 -70.5v-664q0 -143 -23 -239.5t-70 -159.5q-94 -123 -272 -123q-174 0 -270 123q-47 63 -70 159.5t-23 239.5v664q0 49 4.5 70.5t21.5 33.5t50 16.5t109 10.5v59h-572v-59zM629 1565l22 -45l348 114q74 25 98.5 39t26.5 43 q0 35 -21.5 69t-43.5 38h-6q-4 2 -9 2q-18 0 -44.5 -12.5t-73.5 -45.5z" />
<glyph unicode="&#xdb;" horiz-adv-x="1619" d="M59 1358q78 -6 111 -10.5t49.5 -16.5t20.5 -33.5t4 -70.5v-709q0 -88 15 -166t40 -133q35 -72 90 -122t122 -77.5t141.5 -39t156.5 -11.5t157.5 11.5t143.5 39t123 76.5t88 123q27 55 41 133t14 170v705q0 49 4 70.5t21.5 33.5t50.5 16.5t109 10.5v59h-572v-59 q78 -6 111 -10.5t49 -16.5t20.5 -33.5t4.5 -70.5v-664q0 -143 -23 -239.5t-70 -159.5q-94 -123 -272 -123q-174 0 -270 123q-47 63 -70 159.5t-23 239.5v664q0 49 4.5 70.5t21.5 33.5t50 16.5t109 10.5v59h-572v-59zM498 1511l26 -43l219 125l9 4q45 25 59 25q16 0 55 -23 l13 -6l219 -125l26 43l-237 234l-6 6q-47 43 -70 43t-70 -45l-6 -4z" />
<glyph unicode="&#xdc;" horiz-adv-x="1619" d="M59 1358q78 -6 111 -10.5t49.5 -16.5t20.5 -33.5t4 -70.5v-709q0 -88 15 -166t40 -133q35 -72 90 -122t122 -77.5t141.5 -39t156.5 -11.5t157.5 11.5t143.5 39t123 76.5t88 123q27 55 41 133t14 170v705q0 49 4 70.5t21.5 33.5t50.5 16.5t109 10.5v59h-572v-59 q78 -6 111 -10.5t49 -16.5t20.5 -33.5t4.5 -70.5v-664q0 -143 -23 -239.5t-70 -159.5q-94 -123 -272 -123q-174 0 -270 123q-47 63 -70 159.5t-23 239.5v664q0 49 4.5 70.5t21.5 33.5t50 16.5t109 10.5v59h-572v-59zM475 1612q0 -47 33 -82t90 -35t90 35t33 82t-33 80.5 t-90 33.5t-90 -33.5t-33 -80.5zM901 1612q0 -47 33 -82t90 -35t90 35t33 82t-32 80.5t-91 33.5q-57 0 -90 -33.5t-33 -80.5z" />
<glyph unicode="&#xdd;" horiz-adv-x="1204" d="M-25 1358q84 -2 117 -20.5t66 -82.5q92 -170 179 -333.5t157 -307.5q31 -59 30 -118v-306q0 -47 -5 -69.5t-24.5 -33.5t-59.5 -16t-128 -12v-59h637v59q-88 6 -128 11.5t-59.5 16.5t-24.5 33.5t-5 69.5v314q0 37 6 63.5t21 57.5q37 74 87 170t91 171.5t82 148.5t61 108 q33 51 48.5 72.5t36 34.5t50 19.5t84.5 8.5v59h-448v-59l110 -10q35 0 35 -31q0 -10 -10 -35q-16 -41 -50 -112.5t-73 -151.5t-85 -172t-91 -180h-4q-186 340 -316 618q-8 16 -8 33q0 29 31 29l121 12v59h-531v-59zM518 1565l23 -45l348 114q74 25 98.5 39t26.5 43 q0 35 -21.5 69t-44.5 38h-6q-4 2 -8 2q-18 0 -45 -12.5t-74 -45.5z" />
<glyph unicode="&#xde;" horiz-adv-x="1214" d="M72 0h587v59q-84 6 -119.5 10.5t-53 16.5t-22.5 33.5t-5 70.5v183h159q102 0 193.5 19.5t166.5 65.5t118 123.5t43 186.5q0 94 -41 170t-113 121q-68 43 -157 58.5t-203 15.5h-166v94q0 49 4 70.5t21.5 33.5t50 16.5t108.5 10.5v59h-571v-59q78 -6 110.5 -10.5t49 -16.5 t20.5 -33.5t4 -70.5v-1037q0 -49 -4 -70.5t-20.5 -33.5t-49 -16t-110.5 -11v-59zM459 528v457q0 49 29.5 62.5t119.5 13.5q147 0 229.5 -80t82.5 -225q0 -166 -86 -239t-254 -73q-76 0 -98.5 18.5t-22.5 65.5z" />
<glyph unicode="&#xdf;" horiz-adv-x="1241" d="M45 0h500v59q-59 4 -88 9.5t-43.5 15.5t-18.5 30.5t-4 63.5v740q0 129 8.5 217t34.5 153q31 78 83 119t134 41q98 0 163 -69.5t65 -178.5q0 -41 -11.5 -82t-33.5 -65q-240 -66 -240 -277q0 -94 59.5 -163.5t165.5 -141.5q96 -63 142.5 -124.5t46.5 -149.5q0 -74 -42 -112 t-94 -38q-45 0 -84.5 23.5t-74.5 85.5q-14 31 -47 30q-29 0 -52.5 -23.5t-23.5 -53.5q0 -53 73.5 -93.5t184.5 -40.5q147 0 236.5 79t89.5 208q0 106 -58.5 185t-148.5 141q-117 80 -162 132t-45 120q0 82 63.5 132t175.5 66q55 72 56 166q0 41 -14.5 92.5t-55.5 102.5 t-121 86t-205 35q-227 0 -346 -140q-63 -70 -88.5 -178t-25.5 -270v-754q0 -43 -4.5 -63.5t-17.5 -30.5t-39.5 -15.5t-92.5 -9.5v-59z" />
<glyph unicode="&#xe0;" horiz-adv-x="1081" d="M100 266q0 -121 78 -206t217 -85q80 2 149.5 35t147.5 82q2 2 8 6q25 -61 53.5 -92t80.5 -31q57 0 120.5 16.5t120.5 45.5l-12 49q-25 -6 -64 -6q-29 0 -41 4q-31 8 -51 48t-20 128v496q0 55 -10.5 100t-44 84t-102 63.5t-179.5 24.5q-84 0 -160 -20.5t-133 -54 t-89 -74.5t-32 -84q0 -45 39 -71t76 -26q31 0 44 13.5t21 44.5q33 106 88.5 153t122.5 47q72 0 123 -46t51 -158v-86q-27 -29 -104.5 -57.5t-210.5 -67.5q-55 -18 -96 -31q-102 -31 -146.5 -96.5t-44.5 -147.5zM227 1393q0 -29 29 -53.5t86 -57.5l309 -172l31 41l-244 246 q-45 47 -74.5 65.5t-56.5 18.5q-25 0 -52.5 -29t-27.5 -59zM307 295q0 72 37 114t123 74l29 11q84 33 132 52t74 36v-289q0 -57 -19 -99t-51 -66t-68 -34t-68 -10q-92 0 -140.5 58.5t-48.5 152.5z" />
<glyph unicode="&#xe1;" horiz-adv-x="1081" d="M100 266q0 -121 78 -206t217 -85q80 2 149.5 35t147.5 82q2 2 8 6q25 -61 53.5 -92t80.5 -31q57 0 120.5 16.5t120.5 45.5l-12 49q-25 -6 -64 -6q-29 0 -41 4q-31 8 -51 48t-20 128v496q0 55 -10.5 100t-44 84t-102 63.5t-179.5 24.5q-84 0 -160 -20.5t-133 -54 t-89 -74.5t-32 -84q0 -45 39 -71t76 -26q31 0 44 13.5t21 44.5q33 106 88.5 153t122.5 47q72 0 123 -46t51 -158v-86q-27 -29 -104.5 -57.5t-210.5 -67.5q-55 -18 -96 -31q-102 -31 -146.5 -96.5t-44.5 -147.5zM307 295q0 72 37 114t123 74l29 11q84 33 132 52t74 36v-289 q0 -57 -19 -99t-51 -66t-68 -34t-68 -10q-92 0 -140.5 58.5t-48.5 152.5zM401 1151l31 -41l309 172q57 33 86 57.5t29 53.5q0 31 -27.5 59.5t-52.5 28.5q-27 0 -56.5 -18.5t-74.5 -65.5z" />
<glyph unicode="&#xe2;" horiz-adv-x="1081" d="M100 266q0 -121 78 -206t217 -85q80 2 149.5 35t147.5 82q2 2 8 6q25 -61 53.5 -92t80.5 -31q57 0 120.5 16.5t120.5 45.5l-12 49q-25 -6 -64 -6q-29 0 -41 4q-31 8 -51 48t-20 128v496q0 55 -10.5 100t-44 84t-102 63.5t-179.5 24.5q-84 0 -160 -20.5t-133 -54 t-89 -74.5t-32 -84q0 -45 39 -71t76 -26q31 0 44 13.5t21 44.5q33 106 88.5 153t122.5 47q72 0 123 -46t51 -158v-86q-27 -29 -104.5 -57.5t-210.5 -67.5q-55 -18 -96 -31q-102 -31 -146.5 -96.5t-44.5 -147.5zM219 1151l39 -43l211 158q43 31 63 30q20 0 64 -30l211 -158 l39 43l-240 272q-47 51 -74 52q-27 0 -73 -52zM307 295q0 72 37 114t123 74l29 11q84 33 132 52t74 36v-289q0 -57 -19 -99t-51 -66t-68 -34t-68 -10q-92 0 -140.5 58.5t-48.5 152.5z" />
<glyph unicode="&#xe3;" horiz-adv-x="1081" d="M100 266q0 -121 78 -206t217 -85q80 2 149.5 35t147.5 82q2 2 8 6q25 -61 53.5 -92t80.5 -31q57 0 120.5 16.5t120.5 45.5l-12 49q-25 -6 -64 -6q-29 0 -41 4q-31 8 -51 48t-20 128v496q0 55 -10.5 100t-44 84t-102 63.5t-179.5 24.5q-84 0 -160 -20.5t-133 -54 t-89 -74.5t-32 -84q0 -45 39 -71t76 -26q31 0 44 13.5t21 44.5q33 106 88.5 153t122.5 47q72 0 123 -46t51 -158v-86q-27 -29 -104.5 -57.5t-210.5 -67.5q-55 -18 -96 -31q-102 -31 -146.5 -96.5t-44.5 -147.5zM172 1180l39 -27q35 57 66.5 80.5t80.5 23.5q31 0 71 -10 t93 -28l21 -7q102 -33 143 -32q70 0 123 53q39 39 90 141l-41 23q-45 -57 -71.5 -75.5t-67.5 -18.5q-29 0 -66 10t-90 28l-12 5q-53 18 -86 26t-64 8q-84 0 -133 -53t-94 -143zM307 295q0 72 37 114t123 74l29 11q84 33 132 52t74 36v-289q0 -57 -19 -99t-51 -66t-68 -34 t-68 -10q-92 0 -140.5 58.5t-48.5 152.5z" />
<glyph unicode="&#xe4;" horiz-adv-x="1081" d="M100 266q0 -121 78 -206t217 -85q80 2 149.5 35t147.5 82q2 2 8 6q25 -61 53.5 -92t80.5 -31q57 0 120.5 16.5t120.5 45.5l-12 49q-25 -6 -64 -6q-29 0 -41 4q-31 8 -51 48t-20 128v496q0 55 -10.5 100t-44 84t-102 63.5t-179.5 24.5q-84 0 -160 -20.5t-133 -54 t-89 -74.5t-32 -84q0 -45 39 -71t76 -26q31 0 44 13.5t21 44.5q33 106 88.5 153t122.5 47q72 0 123 -46t51 -158v-86q-27 -29 -104.5 -57.5t-210.5 -67.5q-55 -18 -96 -31q-102 -31 -146.5 -96.5t-44.5 -147.5zM201 1284q0 -47 32.5 -82t90.5 -35q57 0 89.5 35t32.5 82 t-32.5 81t-89.5 34t-90 -34t-33 -81zM307 295q0 72 37 114t123 74l29 11q84 33 132 52t74 36v-289q0 -57 -19 -99t-51 -66t-68 -34t-68 -10q-92 0 -140.5 58.5t-48.5 152.5zM627 1284q0 -47 32.5 -82t90.5 -35q57 0 89.5 35t32.5 82t-31.5 81t-90.5 34q-57 0 -90 -34 t-33 -81z" />
<glyph unicode="&#xe5;" horiz-adv-x="1081" d="M100 266q0 -121 78 -206t217 -85q80 2 149.5 35t147.5 82q2 2 8 6q25 -61 53.5 -92t80.5 -31q57 0 120.5 16.5t120.5 45.5l-12 49q-25 -6 -64 -6q-29 0 -41 4q-31 8 -51 48t-20 128v496q0 55 -10.5 100t-44 84t-102 63.5t-179.5 24.5q-84 0 -160 -20.5t-133 -54 t-89 -74.5t-32 -84q0 -45 39 -71t76 -26q31 0 44 13.5t21 44.5q33 106 88.5 153t122.5 47q72 0 123 -46t51 -158v-86q-27 -29 -104.5 -57.5t-210.5 -67.5q-55 -18 -96 -31q-102 -31 -146.5 -96.5t-44.5 -147.5zM307 295q0 72 37 114t123 74l29 11q84 33 132 52t74 36v-289 q0 -57 -19 -99t-51 -66t-68 -34t-68 -10q-92 0 -140.5 58.5t-48.5 152.5zM315 1333q0 -106 63.5 -156.5t158.5 -50.5q94 0 157.5 50.5t63.5 156.5t-63.5 156.5t-157.5 50.5t-158 -50t-64 -157zM434 1333q0 76 27.5 108t75.5 32q47 0 74.5 -32t27.5 -108t-27.5 -107.5 t-74.5 -31.5t-75 31.5t-28 107.5z" />
<glyph unicode="&#xe6;" horiz-adv-x="1642" d="M100 266q0 -121 79 -206t220 -85q84 2 158 38t141 85l76 56q51 -86 143.5 -132.5t235.5 -46.5q160 2 257 79t142 210l-61 33q-49 -102 -117.5 -159.5t-179.5 -57.5q-88 0 -147.5 38t-93 102.5t-47 144t-13.5 174.5h590q39 0 60.5 15t21.5 62q0 59 -14.5 126t-56.5 132.5 t-127 109.5t-216 44q-194 0 -313 -127q-35 59 -105.5 93t-179.5 34q-86 0 -162 -19.5t-134 -54t-90 -76.5t-32 -83q0 -45 40 -71t79 -26q27 0 40 14.5t21 43.5q33 106 88.5 153t126.5 47q72 0 122 -46t50 -154v-90q-27 -29 -104.5 -57.5t-210.5 -67.5q-55 -18 -96 -31 q-102 -31 -146.5 -96.5t-44.5 -147.5zM307 295q0 72 37 114t123 74l29 11q84 33 132 52t74 36v-289q0 -57 -19 -98t-51 -66t-68 -35t-68 -10q-92 0 -140.5 58.5t-48.5 152.5zM895 616q0 41 10 96.5t36 112t75 94t123 37.5q68 0 110.5 -29.5t64 -72.5t30 -88t8.5 -84 q0 -33 -14.5 -49.5t-55.5 -16.5h-387z" />
<glyph unicode="&#xe7;" horiz-adv-x="1026" d="M100 492q0 -244 112 -374t323 -138l-82 -152l8 -14q18 0 38.5 -4.5t41 -15.5t34 -33.5t13.5 -57.5q0 -59 -49.5 -87t-130.5 -28v-53q43 -6 90 -6q31 0 71.5 7t81.5 25.5t69 55.5t28 92q0 88 -54.5 128t-128.5 50l53 93q117 10 216.5 82.5t134.5 207.5l-60 29 q-49 -111 -117.5 -164t-177.5 -53q-86 0 -145 40t-93 106.5t-48.5 143.5t-14.5 156q0 217 74 322.5t188 105.5q68 0 114 -45t79 -133q10 -29 23.5 -41t39.5 -12q43 0 83 26.5t40 77.5q0 76 -99 137.5t-257 61.5q-135 0 -231.5 -44t-154.5 -118.5t-85 -170t-27 -203.5z" />
<glyph unicode="&#xe8;" horiz-adv-x="1062" d="M100 494q0 -248 115 -383.5t358 -135.5q160 2 257.5 79t142.5 210l-62 33q-49 -102 -117.5 -159.5t-179.5 -57.5q-88 0 -147 38t-93 102.5t-47.5 144t-13.5 174.5h590q39 0 60.5 15t21.5 62q0 59 -14.5 126t-56.5 132.5t-127 109.5t-216 44q-231 0 -351 -146.5 t-120 -387.5zM248 1393q0 -29 28.5 -53.5t85.5 -57.5l310 -172l30 41l-243 246q-45 47 -75 65.5t-56 18.5q-25 0 -52.5 -29t-27.5 -59zM315 616q0 41 9.5 96.5t35 112t75.5 94t124 37.5q68 0 111 -29.5t64.5 -72.5t29.5 -88t8 -84q0 -33 -14.5 -49.5t-55.5 -16.5h-387z" />
<glyph unicode="&#xe9;" horiz-adv-x="1062" d="M100 494q0 -248 115 -383.5t358 -135.5q160 2 257.5 79t142.5 210l-62 33q-49 -102 -117.5 -159.5t-179.5 -57.5q-88 0 -147 38t-93 102.5t-47.5 144t-13.5 174.5h590q39 0 60.5 15t21.5 62q0 59 -14.5 126t-56.5 132.5t-127 109.5t-216 44q-231 0 -351 -146.5 t-120 -387.5zM315 616q0 41 9.5 96.5t35 112t75.5 94t124 37.5q68 0 111 -29.5t64.5 -72.5t29.5 -88t8 -84q0 -33 -14.5 -49.5t-55.5 -16.5h-387zM412 1151l30 -41l310 172q57 33 85.5 57.5t28.5 53.5q0 31 -27.5 59.5t-52.5 28.5q-27 0 -56.5 -18.5t-74.5 -65.5z" />
<glyph unicode="&#xea;" horiz-adv-x="1062" d="M100 494q0 -248 115 -383.5t358 -135.5q160 2 257.5 79t142.5 210l-62 33q-49 -102 -117.5 -159.5t-179.5 -57.5q-88 0 -147 38t-93 102.5t-47.5 144t-13.5 174.5h590q39 0 60.5 15t21.5 62q0 59 -14.5 126t-56.5 132.5t-127 109.5t-216 44q-231 0 -351 -146.5 t-120 -387.5zM246 1151l39 -43l211 158q43 31 63 30q20 0 64 -30l211 -158l38 43l-239 272q-47 51 -74 52q-27 0 -74 -52zM315 616q0 41 9.5 96.5t35 112t75.5 94t124 37.5q68 0 111 -29.5t64.5 -72.5t29.5 -88t8 -84q0 -33 -14.5 -49.5t-55.5 -16.5h-387z" />
<glyph unicode="&#xeb;" horiz-adv-x="1062" d="M100 494q0 -248 115 -383.5t358 -135.5q160 2 257.5 79t142.5 210l-62 33q-49 -102 -117.5 -159.5t-179.5 -57.5q-88 0 -147 38t-93 102.5t-47.5 144t-13.5 174.5h590q39 0 60.5 15t21.5 62q0 59 -14.5 126t-56.5 132.5t-127 109.5t-216 44q-231 0 -351 -146.5 t-120 -387.5zM190 1284q0 -47 33 -82t90 -35t90 35t33 82t-32.5 81t-90.5 34q-57 0 -90 -34t-33 -81zM315 616q0 41 9.5 96.5t35 112t75.5 94t124 37.5q68 0 111 -29.5t64.5 -72.5t29.5 -88t8 -84q0 -33 -14.5 -49.5t-55.5 -16.5h-387zM616 1284q0 -47 33 -82t90 -35t90 35 t33 82t-31.5 81t-91.5 34q-57 0 -90 -34t-33 -81z" />
<glyph unicode="&#xec;" horiz-adv-x="606" d="M10 1393q0 -29 29 -53.5t86 -57.5l309 -172l31 41l-244 246q-45 47 -74.5 65.5t-56.5 18.5q-25 0 -52.5 -29t-27.5 -59zM66 0h499v59q-59 4 -87.5 9.5t-43 15.5t-18.5 30.5t-4 63.5v838l-15 12l-321 -51v-51l78 -11q41 -4 53 -20t12 -72v-645q0 -43 -4 -63.5t-17.5 -30.5 t-40 -15.5t-91.5 -9.5v-59z" />
<glyph unicode="&#xed;" horiz-adv-x="606" d="M66 0h499v59q-59 4 -87.5 9.5t-43 15.5t-18.5 30.5t-4 63.5v838l-15 12l-321 -51v-51l78 -11q41 -4 53 -20t12 -72v-645q0 -43 -4 -63.5t-17.5 -30.5t-40 -15.5t-91.5 -9.5v-59zM113 1151l30 -41l310 172q57 33 85.5 57.5t28.5 53.5q0 31 -27.5 59.5t-52.5 28.5 q-27 0 -56.5 -18.5t-74.5 -65.5z" />
<glyph unicode="&#xee;" horiz-adv-x="606" d="M-4 1151l39 -43l211 158q43 31 63 30q20 0 64 -30l211 -158l39 43l-240 272q-47 51 -74 52q-27 0 -73 -52zM66 0h499v59q-59 4 -87.5 9.5t-43 15.5t-18.5 30.5t-4 63.5v838l-15 12l-321 -51v-51l78 -11q41 -4 53 -20t12 -72v-645q0 -43 -4 -63.5t-17.5 -30.5t-40 -15.5 t-91.5 -9.5v-59z" />
<glyph unicode="&#xef;" horiz-adv-x="606" d="M-37 1284q0 -47 33 -82t90 -35t90 35t33 82t-33 81t-90 34t-90 -34t-33 -81zM66 0h499v59q-59 4 -87.5 9.5t-43 15.5t-18.5 30.5t-4 63.5v838l-15 12l-321 -51v-51l78 -11q41 -4 53 -20t12 -72v-645q0 -43 -4 -63.5t-17.5 -30.5t-40 -15.5t-91.5 -9.5v-59zM389 1284 q0 -47 33 -82t90 -35t90 35t33 82t-32 81t-91 34q-57 0 -90 -34t-33 -81z" />
<glyph unicode="&#xf0;" horiz-adv-x="1191" d="M100 502q0 -250 124 -388.5t364 -138.5q244 0 368.5 136.5t124.5 410.5q0 168 -50 297t-167 268q-76 92 -194 189l243 110l-51 74l-268 -125q-59 49 -127 95.5t-139 89.5l-88 -35v-19q143 -109 229 -186l-250 -111l51 -73l267 121q102 -98 172 -195l-4 -6h-5 q-63 12 -102 12q-246 0 -372 -138t-126 -388zM313 502q0 217 64.5 335.5t210.5 118.5q162 0 221 -106t59 -348q0 -219 -64.5 -337t-215.5 -118q-145 0 -210 119t-65 336z" />
<glyph unicode="&#xf1;" horiz-adv-x="1277" d="M66 0h499v59q-59 4 -87.5 9.5t-43 15.5t-18.5 30.5t-4 63.5v479q0 39 4 63.5t16 49.5q35 63 100.5 105.5t143.5 42.5q106 0 160.5 -62.5t54.5 -193.5v-484q0 -43 -4 -63.5t-17.5 -30.5t-40 -15.5t-92.5 -9.5v-59h500v59q-59 4 -88 9.5t-43 15.5t-18.5 30.5t-4.5 63.5v524 q0 156 -79.5 241t-221.5 85q-90 0 -159.5 -30.5t-173.5 -98.5l-39 -27l-29 156l-305 -51v-51l78 -11q41 -4 53 -20t12 -72v-645q0 -43 -4 -63.5t-17.5 -30.5t-40 -15.5t-91.5 -9.5v-59zM270 1180l39 -27q35 57 67 80.5t81 23.5q31 0 70.5 -10t93.5 -28l20 -7 q102 -33 143 -32q70 0 123 53q39 39 90 141l-41 23q-45 -57 -71.5 -75.5t-67.5 -18.5q-29 0 -65.5 10t-89.5 28l-13 5q-53 18 -86 26t-63 8q-84 0 -133.5 -53t-94.5 -143z" />
<glyph unicode="&#xf2;" horiz-adv-x="1191" d="M100 502q0 -252 124 -389.5t366 -137.5q246 0 368.5 136.5t122.5 390.5t-122.5 390t-368.5 136q-242 0 -366 -137t-124 -389zM262 1393q0 -29 28.5 -53.5t86.5 -57.5l309 -172l31 41l-244 246q-45 47 -74.5 65.5t-56.5 18.5q-25 0 -52.5 -29t-27.5 -59zM313 502 q0 217 70 335.5t207 118.5q139 0 208.5 -118.5t69.5 -335.5t-69.5 -336t-208.5 -119q-137 0 -207 119t-70 336z" />
<glyph unicode="&#xf3;" horiz-adv-x="1191" d="M100 502q0 -252 124 -389.5t366 -137.5q246 0 368.5 136.5t122.5 390.5t-122.5 390t-368.5 136q-242 0 -366 -137t-124 -389zM313 502q0 217 70 335.5t207 118.5q139 0 208.5 -118.5t69.5 -335.5t-69.5 -336t-208.5 -119q-137 0 -207 119t-70 336zM426 1151l31 -41 l309 172q57 33 86 57.5t29 53.5q0 31 -28 59.5t-52 28.5q-27 0 -56.5 -18.5t-74.5 -65.5z" />
<glyph unicode="&#xf4;" horiz-adv-x="1191" d="M100 502q0 -252 124 -389.5t366 -137.5q246 0 368.5 136.5t122.5 390.5t-122.5 390t-368.5 136q-242 0 -366 -137t-124 -389zM281 1151l38 -43l211 158q43 31 64 30q20 0 63 -30l211 -158l39 43l-239 272q-47 51 -74 52q-27 0 -74 -52zM313 502q0 217 70 335.5t207 118.5 q139 0 208.5 -118.5t69.5 -335.5t-69.5 -336t-208.5 -119q-137 0 -207 119t-70 336z" />
<glyph unicode="&#xf5;" horiz-adv-x="1191" d="M100 502q0 -252 124 -389.5t366 -137.5q246 0 368.5 136.5t122.5 390.5t-122.5 390t-368.5 136q-242 0 -366 -137t-124 -389zM227 1180l39 -27q35 57 67 80.5t81 23.5q31 0 70.5 -10t93.5 -28l20 -7q102 -33 143 -32q70 0 123 53q39 39 90 141l-41 23 q-45 -57 -71.5 -75.5t-67.5 -18.5q-29 0 -65.5 10t-90.5 28l-12 5q-53 18 -86 26t-63 8q-84 0 -133.5 -53t-94.5 -143zM313 502q0 217 70 335.5t207 118.5q139 0 208.5 -118.5t69.5 -335.5t-69.5 -336t-208.5 -119q-137 0 -207 119t-70 336z" />
<glyph unicode="&#xf6;" horiz-adv-x="1191" d="M100 502q0 -252 124 -389.5t366 -137.5q246 0 368.5 136.5t122.5 390.5t-122.5 390t-368.5 136q-242 0 -366 -137t-124 -389zM256 1284q0 -47 33 -82t90 -35t90 35t33 82t-33 81t-90 34t-90 -34t-33 -81zM313 502q0 217 70 335.5t207 118.5q139 0 208.5 -118.5 t69.5 -335.5t-69.5 -336t-208.5 -119q-137 0 -207 119t-70 336zM682 1284q0 -47 33 -82t90 -35t90 35t33 82t-32 81t-91 34q-57 0 -90 -34t-33 -81z" />
<glyph unicode="&#xf7;" horiz-adv-x="1167" d="M88 453h991v118h-991v-118zM461 176q0 -53 34.5 -88t88.5 -35q49 0 82.5 36t33.5 87q0 49 -33.5 84t-82.5 35q-51 0 -87 -35t-36 -84zM461 852q0 -53 34.5 -88t88.5 -35q49 0 82.5 36t33.5 87q0 49 -33.5 84t-82.5 35q-51 0 -87 -35t-36 -84z" />
<glyph unicode="&#xf8;" horiz-adv-x="1191" d="M100 502q0 -297 166 -426l-69 -113l63 -47l74 117q100 -57 256 -58q246 0 368.5 136.5t122.5 390.5q0 311 -180 440l66 105l-66 43l-67 -109q-104 47 -244 47q-242 0 -366 -137t-124 -389zM303 502q0 217 73 335.5t214 118.5q114 1 182 -73l-420 -670q-45 98 -49 289z M397 135l424 678q58 -108 58 -311q0 -219 -71 -337t-218 -118q-119 0 -193 88z" />
<glyph unicode="&#xf9;" horiz-adv-x="1251" d="M53 926l78 -11q41 -4 53.5 -20t12.5 -72v-540q0 -84 23.5 -144.5t63.5 -96.5t92 -51.5t111 -15.5q90 0 166 33t160 86q35 23 49 29l21 -123h327v59q-59 4 -86.5 9.5t-43 15.5t-19.5 30.5t-4 63.5v838l-15 12l-321 -51v-51l78 -11q41 -4 53 -20t12 -72v-461 q0 -90 -16 -122q-35 -72 -103.5 -113t-148.5 -41q-94 0 -150.5 59.5t-56.5 173.5v697l-14 12l-322 -51v-51zM250 1393q0 -29 28.5 -53.5t86.5 -57.5l309 -172l31 41l-244 246q-45 47 -75 65.5t-56 18.5q-25 0 -52.5 -29t-27.5 -59z" />
<glyph unicode="&#xfa;" horiz-adv-x="1251" d="M53 926l78 -11q41 -4 53.5 -20t12.5 -72v-540q0 -84 23.5 -144.5t63.5 -96.5t92 -51.5t111 -15.5q90 0 166 33t160 86q35 23 49 29l21 -123h327v59q-59 4 -86.5 9.5t-43 15.5t-19.5 30.5t-4 63.5v838l-15 12l-321 -51v-51l78 -11q41 -4 53 -20t12 -72v-461 q0 -90 -16 -122q-35 -72 -103.5 -113t-148.5 -41q-94 0 -150.5 59.5t-56.5 173.5v697l-14 12l-322 -51v-51zM475 1151l31 -41l309 172q57 33 86 57.5t29 53.5q0 31 -28 59.5t-52 28.5q-27 0 -56.5 -18.5t-74.5 -65.5z" />
<glyph unicode="&#xfb;" horiz-adv-x="1251" d="M53 926l78 -11q41 -4 53.5 -20t12.5 -72v-540q0 -84 23.5 -144.5t63.5 -96.5t92 -51.5t111 -15.5q90 0 166 33t160 86q35 23 49 29l21 -123h327v59q-59 4 -86.5 9.5t-43 15.5t-19.5 30.5t-4 63.5v838l-15 12l-321 -51v-51l78 -11q41 -4 53 -20t12 -72v-461 q0 -90 -16 -122q-35 -72 -103.5 -113t-148.5 -41q-94 0 -150.5 59.5t-56.5 173.5v697l-14 12l-322 -51v-51zM299 1151l39 -43l211 158q43 31 63 30q20 0 64 -30l211 -158l39 43l-240 272q-47 51 -74 52q-27 0 -73 -52z" />
<glyph unicode="&#xfc;" horiz-adv-x="1251" d="M53 926l78 -11q41 -4 53.5 -20t12.5 -72v-540q0 -84 23.5 -144.5t63.5 -96.5t92 -51.5t111 -15.5q90 0 166 33t160 86q35 23 49 29l21 -123h327v59q-59 4 -86.5 9.5t-43 15.5t-19.5 30.5t-4 63.5v838l-15 12l-321 -51v-51l78 -11q41 -4 53 -20t12 -72v-461 q0 -90 -16 -122q-35 -72 -103.5 -113t-148.5 -41q-94 0 -150.5 59.5t-56.5 173.5v697l-14 12l-322 -51v-51zM285 1284q0 -47 32.5 -82t90.5 -35q57 0 89.5 35t32.5 82t-32.5 81t-89.5 34t-90 -34t-33 -81zM711 1284q0 -47 32.5 -82t90.5 -35q57 0 89.5 35t32.5 82t-31.5 81 t-90.5 34q-57 0 -90 -34t-33 -81z" />
<glyph unicode="&#xfd;" horiz-adv-x="1046" d="M-10 944q74 -2 101.5 -20.5t53.5 -85.5q33 -80 83.5 -204t96.5 -243t85 -220t57 -157q16 -47 16 -100q0 -70 -49 -174q-20 -45 -44.5 -65.5t-45.5 -20.5q-16 0 -33.5 9t-42.5 34q-33 29 -61 29q-31 0 -60.5 -36t-29.5 -79q0 -39 41 -73t102 -34q37 0 71 10.5t69.5 43 t74.5 99.5t76 175q43 125 99.5 280.5t113.5 306t101 262.5t65 159q29 63 53 81.5t98 22.5v60h-393v-60l107 -10q33 0 32 -37q0 -20 -4 -33q-10 -43 -35.5 -122.5t-56.5 -170t-65.5 -189.5t-69.5 -196h-4q-139 365 -252 686q-2 6 -2 11q-6 16 -6 24q0 29 39 29l88 8v60h-469 v-60zM434 1151l31 -41l309 172q57 33 86 57.5t29 53.5q0 31 -27.5 59.5t-52.5 28.5q-27 0 -56.5 -18.5t-74.5 -65.5z" />
<glyph unicode="&#xfe;" horiz-adv-x="1251" d="M47 -412v-59h531v59q-70 4 -105 9.5t-52.5 16.5t-22.5 31.5t-5 61.5v316q35 -18 100.5 -33t133.5 -15q109 0 201 28t162.5 91.5t110.5 169.5t40 260q0 76 -12.5 155t-52.5 161t-122 135t-213 53q-80 0 -148.5 -30.5t-150.5 -86.5q-37 -25 -49 -30v585l-14 13l-322 -52 v-51l78 -8q41 -4 53.5 -20.5t12.5 -73.5v-1567q0 -43 -4 -62.5t-18.5 -30.5t-42 -16.5t-89.5 -9.5zM393 322v335q0 37 6.5 62.5t20.5 54.5q72 143 244 144q37 0 80.5 -15.5t85.5 -59.5t70 -125t28 -206q0 -229 -74 -347t-225 -118q-80 0 -138.5 39t-82.5 111q-14 43 -15 125 z" />
<glyph unicode="&#xff;" horiz-adv-x="1046" d="M-10 944q74 -2 101.5 -20.5t53.5 -85.5q33 -80 83.5 -204t96.5 -243t85 -220t57 -157q16 -47 16 -100q0 -70 -49 -174q-20 -45 -44.5 -65.5t-45.5 -20.5q-16 0 -33.5 9t-42.5 34q-33 29 -61 29q-31 0 -60.5 -36t-29.5 -79q0 -39 41 -73t102 -34q37 0 71 10.5t69.5 43 t74.5 99.5t76 175q43 125 99.5 280.5t113.5 306t101 262.5t65 159q29 63 53 81.5t98 22.5v60h-393v-60l107 -10q33 0 32 -37q0 -20 -4 -33q-10 -43 -35.5 -122.5t-56.5 -170t-65.5 -189.5t-69.5 -196h-4q-139 365 -252 686q-2 6 -2 11q-6 16 -6 24q0 29 39 29l88 8v60h-469 v-60zM213 1284q0 -47 33 -82t90 -35t90 35t33 82t-33 81t-90 34t-90 -34t-33 -81zM639 1284q0 -47 33 -82t90 -35t90 35t33 82t-32 81t-91 34q-57 0 -90 -34t-33 -81z" />
<glyph unicode="&#x152;" horiz-adv-x="2099" d="M98 698q0 -205 79 -353t208 -230q113 -72 242 -93.5t291 -21.5h1097l25 354h-62q-16 -94 -45.5 -150.5t-73.5 -84t-108.5 -37.5t-169.5 -10q-82 0 -130 6t-79 20t-43 51t-12 107v442h287q66 0 102.5 -9t55 -29.5t26.5 -50t16 -89.5h62v432h-62q-8 -55 -16 -85.5 t-25 -49.5q-39 -41 -159 -41h-287v496q0 45 14.5 59.5t61.5 14.5h200q90 0 144.5 -11.5t87.5 -40t49 -78t29 -135.5h61v336h-1036q-160 0 -291 -23.5t-252 -97.5q-127 -80 -207 -232.5t-80 -365.5zM328 709q0 129 26.5 240.5t90 201.5t172 142.5t264.5 52.5q121 0 177 -23 t56 -84v-1059q0 -63 -52 -85.5t-185 -22.5q-154 0 -262.5 55t-171 147.5t-89 203t-26.5 231.5z" />
<glyph unicode="&#x153;" horiz-adv-x="1816" d="M100 502q0 -252 124 -389.5t366 -137.5q123 0 217 41t156 119q53 -78 142 -119t222 -41q160 2 257 79t142 210l-61 33q-49 -102 -117.5 -159.5t-179.5 -57.5q-88 0 -147.5 38t-93 102.5t-47 144t-13.5 174.5h590q39 0 60.5 15t21.5 62q0 59 -14.5 126t-56.5 132.5 t-127 109.5t-216 44q-121 0 -209 -46t-145 -118q-57 78 -154.5 121t-226.5 43q-242 0 -366 -137t-124 -389zM313 502q0 217 70 335.5t207 118.5q139 0 208.5 -118.5t69.5 -335.5t-69.5 -336t-208.5 -119q-137 0 -207 119t-70 336zM1069 616q0 41 9 96.5t35 112t76 94 t124 37.5q68 0 110.5 -29.5t64 -72.5t30 -88t8.5 -84q0 -33 -14.5 -49.5t-55.5 -16.5h-387z" />
<glyph unicode="&#x178;" horiz-adv-x="1204" d="M-25 1358q84 -2 117 -20.5t66 -82.5q92 -170 179 -333.5t157 -307.5q31 -59 30 -118v-306q0 -47 -5 -69.5t-24.5 -33.5t-59.5 -16t-128 -12v-59h637v59q-88 6 -128 11.5t-59.5 16.5t-24.5 33.5t-5 69.5v314q0 37 6 63.5t21 57.5q37 74 87 170t91 171.5t82 148.5t61 108 q33 51 48.5 72.5t36 34.5t50 19.5t84.5 8.5v59h-448v-59l110 -10q35 0 35 -31q0 -10 -10 -35q-16 -41 -50 -112.5t-73 -151.5t-85 -172t-91 -180h-4q-186 340 -316 618q-8 16 -8 33q0 29 31 29l121 12v59h-531v-59zM303 1612q0 -47 33 -82t90 -35t90 35t33 82t-33 80.5 t-90 33.5t-90 -33.5t-33 -80.5zM729 1612q0 -47 33 -82t90 -35t90 35t33 82t-32 80.5t-91 33.5q-57 0 -90 -33.5t-33 -80.5z" />
<glyph unicode="&#x2c6;" horiz-adv-x="819" d="M96 1151l39 -43l211 158q43 31 64 30q20 0 63 -30l211 -158l39 43l-240 272q-47 51 -73 52q-27 0 -74 -52z" />
<glyph unicode="&#x2dc;" horiz-adv-x="819" d="M45 1180l39 -27q35 57 66.5 80.5t80.5 23.5q31 0 71 -10t93 -28l21 -7q102 -33 143 -32q70 0 123 53q39 39 90 141l-41 23q-45 -57 -71.5 -75.5t-67.5 -18.5q-29 0 -66 10t-90 28l-12 5q-53 18 -86 26t-64 8q-84 0 -133 -53t-94 -143z" />
<glyph unicode="&#x2000;" horiz-adv-x="912" />
<glyph unicode="&#x2001;" horiz-adv-x="1825" />
<glyph unicode="&#x2002;" horiz-adv-x="912" />
<glyph unicode="&#x2003;" horiz-adv-x="1825" />
<glyph unicode="&#x2004;" horiz-adv-x="608" />
<glyph unicode="&#x2005;" horiz-adv-x="456" />
<glyph unicode="&#x2006;" horiz-adv-x="304" />
<glyph unicode="&#x2007;" horiz-adv-x="304" />
<glyph unicode="&#x2008;" horiz-adv-x="228" />
<glyph unicode="&#x2009;" horiz-adv-x="365" />
<glyph unicode="&#x200a;" horiz-adv-x="101" />
<glyph unicode="&#x2010;" horiz-adv-x="802" d="M152 442h501v144h-501v-144z" />
<glyph unicode="&#x2011;" horiz-adv-x="802" d="M152 442h501v144h-501v-144z" />
<glyph unicode="&#x2012;" horiz-adv-x="802" d="M152 442h501v144h-501v-144z" />
<glyph unicode="&#x2013;" horiz-adv-x="1024" d="M0 453h1024v118h-1024v-118z" />
<glyph unicode="&#x2014;" horiz-adv-x="2048" d="M0 453h2048v118h-2048v-118z" />
<glyph unicode="&#x2018;" horiz-adv-x="569" d="M147 1155q0 -78 40 -127t94 -49q45 0 71.5 27.5t26.5 70.5q0 37 -33 94q-35 61 -35 99q0 55 30 111.5t83 117.5l-35 33q-47 -45 -87 -85t-74.5 -88t-57.5 -100.5t-23 -103.5z" />
<glyph unicode="&#x2019;" horiz-adv-x="569" d="M147 999l35 -32q49 45 88 85t75 88t57.5 100t21.5 103q0 80 -39 128.5t-94 48.5q-45 0 -71.5 -28t-26.5 -71q0 -37 32 -94q35 -59 35 -98q0 -55 -29.5 -111.5t-83.5 -118.5z" />
<glyph unicode="&#x201a;" horiz-adv-x="569" d="M147 -223l35 -33q49 45 88 85t75 88t57.5 100.5t21.5 103.5q0 80 -39 128t-94 48q-45 0 -71.5 -27.5t-26.5 -70.5q0 -37 32 -95q35 -59 35 -98q0 -55 -29.5 -111.5t-83.5 -117.5z" />
<glyph unicode="&#x201c;" horiz-adv-x="937" d="M147 1155q0 -78 40 -127t94 -49q45 0 71.5 27.5t26.5 70.5q0 37 -33 94q-35 61 -35 99q0 55 30 111.5t83 117.5l-35 33q-47 -45 -87 -85t-74.5 -88t-57.5 -100.5t-23 -103.5zM516 1155q0 -78 40 -127t93 -49q45 0 72 27.5t27 70.5q0 37 -33 94q-35 61 -35 99 q0 55 30 111.5t83 117.5l-35 33q-47 -45 -87 -85t-75 -88t-57.5 -100.5t-22.5 -103.5z" />
<glyph unicode="&#x201d;" horiz-adv-x="937" d="M147 999l35 -32q49 45 88 85t75 88t57.5 100t21.5 103q0 80 -39 128.5t-94 48.5q-45 0 -71.5 -28t-26.5 -71q0 -37 32 -94q35 -59 35 -98q0 -55 -29.5 -111.5t-83.5 -118.5zM516 999l35 -32q49 45 88 85t75 88t57.5 100t21.5 103q0 80 -39 128.5t-95 48.5 q-45 0 -71.5 -28t-26.5 -71q0 -37 33 -94q35 -59 35 -98q0 -55 -30 -111.5t-83 -118.5z" />
<glyph unicode="&#x201e;" horiz-adv-x="937" d="M147 -223l35 -33q14 14 48 50t80 93.5t80 120t34 113.5q0 80 -39 128t-94 48q-45 0 -71.5 -27.5t-26.5 -70.5q0 -37 32 -95q35 -59 35 -98q0 -55 -29.5 -111.5t-83.5 -117.5zM516 -223l35 -33q49 45 88 85t75 88t57.5 100.5t21.5 103.5q0 80 -39 128t-95 48 q-45 0 -71.5 -27.5t-26.5 -70.5q0 -37 33 -95q35 -59 35 -98q0 -55 -30 -111.5t-83 -117.5z" />
<glyph unicode="&#x2022;" horiz-adv-x="837" d="M92 721q0 -66 25.5 -126t72 -105.5t105.5 -71t125 -25.5t124 25.5t104 71t71.5 105.5t25.5 126t-25.5 125t-71.5 105t-104.5 72t-123.5 26q-66 0 -125 -26t-105.5 -72t-72 -105.5t-25.5 -124.5z" />
<glyph unicode="&#x2026;" horiz-adv-x="2048" d="M213 104q0 -55 36 -92t93 -37q59 0 94 36t35 93q0 59 -36 96.5t-93 37.5t-93 -38t-36 -96zM895 104q0 -55 36 -92t93 -37q59 0 94 36t35 93q0 59 -36 96.5t-93 37.5t-93 -38t-36 -96zM1577 104q0 -55 36 -92t93 -37q59 0 94 36t35 93q0 59 -36 96.5t-93 37.5t-93 -38 t-36 -96z" />
<glyph unicode="&#x202f;" horiz-adv-x="365" />
<glyph unicode="&#x2039;" horiz-adv-x="526" d="M84 489q0 -16 10 -32l307 -373l41 33l-161 336q-8 16 -9 36q0 23 9 33l161 334l-41 35l-307 -371q-10 -14 -10 -31z" />
<glyph unicode="&#x203a;" horiz-adv-x="526" d="M84 117l41 -33l307 373q10 12 10 32q0 23 -10 31l-307 371l-41 -35l162 -334q10 -16 10 -33q0 -16 -10 -36z" />
<glyph unicode="&#x205f;" horiz-adv-x="456" />
<glyph unicode="&#x2122;" horiz-adv-x="2252" d="M92 1210h43q16 96 53 124t150 28h65v-668q0 -49 -21.5 -61t-119.5 -19v-47h443v47q-98 6 -120 18.5t-22 61.5v668h70q109 0 144.5 -27.5t51.5 -124.5h43v207h-780v-207zM944 567h342v47q-82 6 -110.5 17.5t-32.5 46.5q-8 82 -8 151v476h8l340 -715h43l342 715h8v-611 q0 -49 -17.5 -61t-97.5 -19v-47h385v47q-80 6 -97 18.5t-17 61.5v596q0 49 17 60.5t97 19.5v47h-305q-37 -90 -119 -260l-30 -65l-138 -293h-4l-137 291q-14 31 -41 88q-74 158 -108 239h-312v-47q80 -8 97.5 -19.5t17.5 -60.5v-461q0 -90 -6 -151q-4 -35 -29.5 -46 t-87.5 -18v-47z" />
<glyph unicode="&#xe000;" horiz-adv-x="1003" d="M0 0v1004h1004v-1004h-1004z" />
</font>
</defs>
</svg>
